<?xml version="1.0" standalone="no"?>
<!DOCTYPE svg PUBLIC "-//W3C//DTD SVG 20010904//EN"
 "http://www.w3.org/TR/2001/REC-SVG-20010904/DTD/svg10.dtd">
<svg version="1.0" xmlns="http://www.w3.org/2000/svg"
 width="800.000000pt" height="622.000000pt" viewBox="0 0 800.000000 622.000000"
 preserveAspectRatio="xMidYMid meet">
<metadata>
Created by potrace 1.16, written by Peter Selinger 2001-2019
</metadata>
<g transform="translate(0.000000,622.000000) scale(0.100000,-0.100000)"
fill="#000000" stroke="none">
<path d="M2800 6180 c-148 -14 -249 -53 -292 -112 -18 -26 -23 -46 -23 -97 l0
-63 -55 6 c-30 3 -160 9 -288 13 -296 8 -600 -9 -767 -43 -215 -44 -464 -142
-552 -218 -71 -61 -97 -142 -69 -208 7 -14 -7 -24 -78 -57 -120 -55 -265 -143
-302 -183 -98 -103 -97 -223 2 -264 29 -12 48 -12 136 2 79 13 135 30 252 79
157 66 256 99 280 93 8 -2 -24 -35 -75 -78 -190 -160 -289 -343 -292 -540 -1
-90 11 -127 52 -164 17 -16 32 -18 88 -14 127 9 205 65 412 296 85 95 152 147
256 199 84 43 215 88 310 106 258 51 465 78 465 61 0 -5 -20 -22 -44 -37 -101
-64 -140 -139 -116 -227 18 -67 48 -90 117 -90 50 0 75 8 203 69 191 91 256
112 351 112 76 0 164 -22 208 -54 20 -13 16 -17 -83 -81 -247 -158 -607 -447
-783 -628 -201 -207 -257 -340 -203 -478 11 -28 20 -58 20 -67 0 -15 -1 -15
-18 0 -26 24 -91 49 -105 41 -7 -4 -20 -14 -30 -22 -10 -9 -34 -16 -55 -16
-35 -1 -38 -3 -47 -43 -6 -24 -20 -50 -33 -59 -41 -28 -22 -132 36 -193 22
-23 32 -42 29 -56 -3 -11 -17 -63 -31 -115 -17 -59 -29 -133 -33 -195 -5 -90
-3 -106 17 -153 31 -71 86 -117 177 -145 l73 -23 -26 -25 c-98 -90 -88 -311
24 -534 54 -108 102 -173 196 -263 205 -196 494 -331 821 -382 51 -8 84 -20
120 -44 72 -49 89 -56 131 -56 25 0 49 9 71 26 23 17 42 24 56 21 12 -3 47
-13 77 -21 106 -31 170 -23 383 48 297 98 331 118 501 306 146 161 186 211
236 296 38 65 40 67 40 36 0 -37 -30 -100 -95 -200 -85 -133 -167 -392 -196
-625 -5 -43 -15 -87 -21 -97 -9 -14 -7 -25 10 -54 33 -56 28 -107 -23 -253
-71 -202 -75 -285 -17 -346 38 -40 68 -54 167 -77 104 -24 134 -25 163 -4 34
24 61 12 143 -62 135 -121 284 -175 482 -175 62 0 127 -4 144 -10 40 -13 168
16 251 57 71 35 112 96 112 167 0 76 -29 98 -260 196 -253 108 -370 169 -477
250 -103 79 -127 108 -118 143 5 19 12 24 28 21 33 -6 54 22 91 124 18 48 62
144 98 213 108 209 297 831 344 1130 43 276 -20 550 -154 670 -69 62 -215 136
-297 151 -87 16 -296 -6 -384 -41 l-53 -21 43 51 c125 143 153 180 180 235 42
86 47 142 18 179 -13 17 -24 45 -25 67 -4 80 -49 119 -104 89 -11 -6 -20 -9
-20 -8 0 2 7 35 15 73 9 44 11 82 6 100 -7 28 -11 30 -53 29 -36 0 -55 -8 -97
-39 -64 -46 -181 -177 -315 -349 -86 -111 -152 -176 -178 -176 -5 0 -118 -52
-252 -115 -280 -131 -346 -154 -731 -260 -154 -42 -308 -85 -343 -96 -62 -20
-64 -20 -84 -2 -55 49 -229 307 -294 434 -23 48 -61 107 -83 133 -39 45 -58
82 -47 93 2 3 37 9 77 13 68 8 93 21 86 45 -2 6 -50 13 -108 16 -57 3 -112 10
-121 14 -25 10 -23 51 5 128 58 158 202 312 597 633 l75 61 -5 -101 c-4 -72
-10 -110 -22 -128 -9 -14 -14 -34 -12 -45 18 -69 -126 -204 -286 -269 -35 -14
-78 -37 -97 -51 -33 -25 -63 -25 -63 -1 0 18 22 50 85 123 28 33 61 73 73 89
23 30 29 66 11 66 -18 0 -196 -161 -230 -208 -64 -88 -44 -178 38 -175 112 3
803 272 1088 422 108 57 616 368 772 472 174 116 665 493 738 566 175 175 220
283 131 313 -44 14 -127 -5 -265 -60 -90 -36 -181 -54 -197 -38 -13 14 430
146 547 163 58 9 119 -8 149 -40 37 -40 32 -87 -18 -183 -23 -45 -40 -82 -36
-82 3 0 36 27 72 60 l66 61 44 -68 c58 -90 202 -382 202 -411 0 -12 -32 -70
-71 -128 -88 -131 -119 -197 -119 -251 0 -44 25 -73 62 -73 15 0 18 -9 18 -60
0 -92 25 -130 86 -130 13 0 24 -6 24 -12 0 -28 22 -88 36 -103 10 -9 34 -15
66 -15 l51 0 -6 -132 c-5 -127 -36 -328 -72 -468 -45 -181 -108 -329 -218
-513 -50 -85 -52 -116 -15 -208 39 -97 53 -186 53 -349 0 -108 -5 -163 -18
-217 -11 -39 -17 -79 -15 -89 2 -14 27 -23 108 -40 402 -86 504 -109 660 -145
105 -24 281 -76 440 -131 219 -75 276 -91 330 -92 76 -2 125 -24 134 -61 9
-34 67 -75 182 -125 164 -72 219 -58 311 78 84 125 122 270 89 347 -12 29 -11
31 37 74 38 35 61 69 107 165 123 255 189 458 211 643 14 118 3 164 -44 193
-43 26 -65 25 -73 -4 -3 -13 -22 -33 -44 -45 -55 -31 -95 -81 -175 -223 -38
-68 -88 -150 -110 -183 -47 -70 -184 -240 -270 -334 -33 -36 -70 -79 -82 -96
l-21 -30 -79 77 c-92 92 -185 159 -383 276 -80 47 -197 116 -260 154 -63 38
-161 87 -218 109 -114 44 -381 123 -454 134 -27 4 -48 12 -48 17 0 7 -14 8
-36 5 -36 -6 -143 9 -156 22 -4 3 12 47 36 96 93 193 186 508 186 634 0 14 5
42 10 62 9 31 15 37 45 42 102 17 337 162 462 286 323 320 507 748 464 1083
-23 174 -79 303 -183 414 -165 176 -390 221 -674 133 -132 -41 -293 -137 -428
-255 -28 -24 -54 -44 -58 -44 -4 0 -25 35 -48 79 -121 232 -206 250 -646 141
-148 -37 -216 -59 -299 -99 -60 -28 -109 -50 -110 -49 -2 2 -21 42 -43 89 -66
139 -147 232 -306 352 -221 167 -769 291 -1136 257z m566 -205 c55 -14 128
-40 164 -57 54 -27 66 -38 68 -60 4 -34 -8 -35 -75 -9 -110 43 -285 75 -430
80 -34 1 -67 26 -57 43 23 36 191 38 330 3z m-1636 -195 c23 -15 -12 -38 -69
-45 -106 -14 -319 -58 -390 -80 -93 -30 -101 -30 -101 -4 0 53 273 125 520
137 14 1 32 -3 40 -8z m4559 -185 c137 -33 254 -125 311 -247 110 -235 42
-552 -192 -901 -109 -162 -276 -316 -478 -440 -140 -86 -146 -87 -154 -41 -13
64 0 93 51 115 145 62 370 257 470 406 63 96 116 217 139 324 20 92 22 246 5
319 -31 127 -105 239 -198 298 -60 37 -98 49 -191 60 -70 8 -80 7 -181 -28
-120 -40 -209 -94 -315 -191 -72 -67 -69 -66 -101 -7 -28 50 -21 60 95 137
122 80 296 163 405 191 88 24 245 25 334 5z m-3202 -159 c21 -11 22 -14 10
-24 -8 -7 -46 -19 -84 -27 -38 -8 -85 -21 -105 -29 -39 -17 -48 -13 -48 20 0
31 29 61 70 73 41 12 123 5 157 -13z m3105 -76 c161 -60 224 -233 169 -465
-60 -254 -277 -540 -487 -641 -64 -31 -114 -43 -114 -29 0 17 38 76 76 119 81
90 144 250 144 366 0 85 -25 147 -85 207 -69 68 -104 78 -213 57 -46 -9 -85
-14 -87 -12 -8 7 -65 160 -65 172 0 17 130 115 212 161 168 92 320 114 450 65z
m-373 -518 c85 -43 97 -118 40 -242 -52 -113 -180 -278 -240 -311 -19 -10 -17
-2 16 56 39 70 48 122 26 149 -21 25 -45 19 -100 -24 -28 -22 -51 -36 -51 -31
0 5 27 46 60 92 60 85 68 107 51 152 -13 34 -42 41 -86 22 -21 -8 -39 -15 -40
-15 -2 0 10 25 27 55 16 30 36 55 44 55 8 0 14 4 14 9 0 17 104 48 170 50 19
1 50 -7 69 -17z m-2730 -192 c10 -30 9 -32 -52 -77 -83 -61 -111 -71 -176 -64
l-54 6 123 83 c68 45 129 82 136 82 7 0 17 -14 23 -30z m1367 -949 c-44 -92
-53 -143 -32 -176 28 -42 59 -33 113 34 45 55 70 77 80 67 2 -2 -7 -16 -20
-32 -74 -89 -92 -139 -63 -179 13 -18 15 -18 41 -1 60 39 32 0 -81 -112 -69
-70 -152 -141 -198 -171 l-79 -51 -18 49 c-9 28 -33 76 -53 108 -27 43 -36 69
-36 102 0 38 5 48 53 94 28 29 89 97 134 153 83 101 180 200 189 191 2 -2 -11
-37 -30 -76z m-2432 -456 c47 -23 67 -71 60 -143 -11 -104 32 -131 114 -72 37
27 42 28 51 13 7 -13 4 -20 -12 -28 -12 -6 -23 -19 -25 -28 -4 -21 24 -57 45
-57 19 0 9 -32 -29 -93 -106 -167 -327 -239 -461 -151 -55 36 -69 76 -56 155
17 98 57 142 78 86 5 -13 16 -29 25 -36 21 -18 63 -6 71 20 7 21 -9 49 -29 49
-8 0 -11 12 -8 35 4 30 1 36 -21 44 -13 5 -27 17 -31 27 -6 15 -10 13 -26 -14
-11 -18 -21 -32 -23 -32 -2 0 2 37 10 83 16 95 29 112 104 138 66 23 121 24
163 4z m2069 -134 c39 -81 65 -146 61 -155 -7 -18 -179 -145 -269 -198 -109
-65 -238 -125 -385 -178 -80 -29 -208 -77 -285 -107 -211 -83 -289 -108 -535
-174 -319 -85 -402 -116 -417 -155 -24 -63 169 -62 420 2 125 31 246 70 322
101 80 34 108 32 201 -14 43 -22 108 -50 144 -63 36 -13 69 -26 73 -30 5 -4
-7 -32 -27 -62 -41 -65 -126 -232 -155 -305 -28 -71 -58 -195 -66 -273 -11
-98 -26 -108 -105 -66 -29 15 -71 26 -120 31 -162 15 -419 94 -565 175 -335
185 -513 443 -465 674 7 36 18 59 28 63 10 4 34 23 55 44 68 67 510 280 543
261 9 -5 45 7 102 35 62 31 121 51 205 68 325 69 504 134 866 317 162 81 297
148 300 148 3 -1 36 -63 74 -139z m3757 -271 c-44 -174 -140 -429 -202 -540
-20 -36 -59 -96 -87 -134 -61 -82 -68 -105 -49 -154 14 -37 14 -38 -61 -192
-41 -85 -79 -163 -86 -172 -10 -15 -20 -12 -115 30 -58 25 -106 46 -107 47 -1
0 2 28 6 61 6 40 26 96 60 164 28 57 51 115 51 131 0 19 9 34 32 51 49 35 163
155 223 233 76 99 175 260 247 400 102 201 125 220 88 75z m-4219 -387 c-32
-43 -73 -106 -90 -140 -24 -48 -36 -63 -53 -63 -23 0 -225 78 -233 89 -2 4 50
29 116 55 66 26 158 67 206 92 48 24 93 44 100 44 7 0 -13 -35 -46 -77z m799
-1558 c36 -8 115 -14 176 -15 118 0 124 -2 124 -51 0 -29 -33 -28 -232 6 -75
13 -142 26 -148 30 -14 9 -13 45 3 45 6 -1 41 -7 77 -15z m95 -175 c116 -12
194 -11 226 4 11 5 21 -6 40 -46 32 -70 136 -175 226 -227 98 -56 240 -111
406 -157 75 -21 137 -41 137 -46 0 -18 -53 -40 -135 -55 -81 -16 -95 -16 -218
-1 -230 30 -381 84 -497 181 -72 60 -108 81 -158 92 -28 6 -36 2 -61 -24 -28
-30 -29 -30 -72 -17 -24 8 -60 17 -80 20 -66 11 -71 21 -50 101 15 58 29 144
31 202 0 8 11 8 43 -2 23 -7 96 -18 162 -25z"/>
<path d="M1785 2820 c-18 -56 65 -115 126 -90 35 15 49 37 49 79 0 27 -3 31
-28 31 -15 0 -33 -5 -40 -12 -9 -9 -21 -9 -50 0 -50 15 -50 15 -57 -8z"/>
<path d="M4812 5076 c-104 -95 -255 -206 -352 -261 -140 -79 -330 -208 -336
-228 -9 -28 1 -30 48 -9 53 23 334 203 425 272 92 69 332 273 332 283 1 4 -9
7 -22 7 -15 0 -50 -24 -95 -64z"/>
<path d="M360 4811 c-14 -9 -44 -23 -66 -29 -99 -29 -194 -201 -194 -353 0
-98 95 -209 177 -209 66 1 75 29 77 234 l1 171 44 87 c36 72 41 91 31 103 -16
20 -39 19 -70 -4z"/>
<path d="M4884 4671 c-20 -28 -97 -108 -172 -178 -149 -137 -173 -166 -155
-184 15 -15 37 -2 148 86 104 84 204 186 229 233 19 36 18 83 -1 89 -7 3 -28
-18 -49 -46z"/>
<path d="M1475 4471 c-57 -25 -129 -101 -161 -169 -37 -75 -41 -206 -9 -261
41 -69 104 -93 147 -55 38 34 48 76 48 204 0 141 8 166 74 229 35 34 43 48 34
58 -15 19 -86 16 -133 -6z"/>
<path d="M529 3988 c-23 -29 -55 -80 -70 -113 -65 -135 -19 -309 76 -291 56
12 59 22 67 209 5 95 9 188 10 207 3 29 -1 36 -19 38 -16 2 -32 -10 -64 -50z"/>
<path d="M855 3924 c-26 -63 -20 -111 19 -150 38 -38 70 -44 85 -15 13 23 -5
147 -25 179 -23 36 -61 29 -79 -14z"/>
<path d="M1055 3288 c-6 -18 -8 -38 -6 -77 1 -47 61 -103 105 -99 27 3 31 7
34 35 4 36 -18 85 -56 126 -27 28 -69 36 -77 15z"/>
<path d="M619 3188 c-15 -57 -5 -190 19 -261 25 -71 73 -140 115 -166 62 -38
143 -37 169 3 27 40 -11 121 -101 218 -86 94 -106 123 -121 178 -14 54 -26 70
-51 70 -13 0 -22 -12 -30 -42z"/>
<path d="M238 2699 c-26 -14 -31 -63 -14 -122 25 -87 104 -144 154 -111 21 14
24 21 19 57 -11 80 -118 199 -159 176z"/>
<path d="M930 2055 c-10 -12 -10 -24 -2 -53 27 -86 85 -142 150 -142 54 0 43
36 -39 130 -40 44 -77 80 -84 80 -7 0 -18 -7 -25 -15z"/>
<path d="M167 1763 c-27 -26 22 -146 73 -183 38 -27 94 -43 120 -35 56 18 -13
137 -120 208 -25 17 -61 22 -73 10z"/>
<path d="M1640 1141 c0 -22 71 -84 115 -101 45 -17 75 -5 75 29 0 34 -24 53
-100 75 -71 21 -90 20 -90 -3z"/>
</g>
</svg>
