<?xml version="1.0" standalone="no"?>
<!DOCTYPE svg PUBLIC "-//W3C//DTD SVG 20010904//EN"
 "http://www.w3.org/TR/2001/REC-SVG-20010904/DTD/svg10.dtd">
<svg version="1.0" xmlns="http://www.w3.org/2000/svg"
 width="400.000000pt" height="314.000000pt" viewBox="0 0 400.000000 314.000000"
 preserveAspectRatio="xMidYMid meet">

<g transform="translate(0.000000,314.000000) scale(0.100000,-0.100000)"
fill="#000000" stroke="none">
<path d="M1983 2960 c-57 -12 -120 -46 -135 -73 -7 -12 -15 -62 -18 -112 l-5
-90 -45 -24 c-41 -23 -59 -26 -225 -32 -204 -7 -269 -24 -363 -93 -131 -96
-135 -260 -7 -325 45 -24 60 -26 170 -26 l120 0 5 -71 c7 -98 25 -118 98 -111
32 3 83 20 127 42 50 25 84 36 101 32 14 -2 31 1 38 9 11 10 19 9 45 -7 17
-10 31 -27 31 -38 0 -30 -29 -53 -59 -47 -14 3 -56 8 -94 12 -60 6 -73 3 -120
-20 -28 -14 -95 -64 -147 -112 -52 -47 -114 -99 -136 -115 -23 -16 -47 -42
-52 -58 -18 -51 -121 -105 -279 -146 -97 -26 -319 -58 -334 -50 -4 3 9 22 31
41 56 51 90 124 90 196 0 62 -18 111 -45 121 -8 4 -15 14 -15 23 0 29 -49 103
-79 118 -81 42 -151 15 -213 -83 l-28 -45 0 46 c0 30 -6 53 -16 63 -15 15 -18
15 -35 -1 -23 -21 -62 -141 -79 -241 -6 -40 -14 -73 -16 -73 -2 0 -1 46 2 103
8 116 -2 150 -39 145 -15 -2 -29 -18 -44 -48 -19 -38 -23 -69 -29 -205 -8
-183 1 -244 49 -345 38 -81 140 -186 217 -223 91 -44 173 -60 265 -53 226 19
317 43 463 124 46 26 92 51 103 57 10 5 19 13 19 17 0 5 6 8 14 8 8 0 17 7 20
16 5 13 9 14 21 4 12 -10 31 0 105 54 50 36 93 66 96 66 20 0 -34 -275 -61
-314 -8 -11 -15 -31 -15 -44 0 -13 -8 -25 -17 -29 -51 -17 -277 -119 -333
-150 -127 -70 -326 -209 -391 -273 -86 -86 -112 -142 -107 -231 3 -54 9 -73
32 -104 78 -102 247 -101 686 4 47 11 148 32 225 47 77 14 193 41 258 60 65
19 129 34 142 34 12 0 60 -20 106 -44 223 -118 454 -165 845 -173 292 -6 292
-6 385 87 68 67 80 109 55 192 -49 166 -196 309 -464 452 -66 35 -141 77 -168
92 -27 16 -89 45 -138 65 l-90 36 -32 104 c-32 106 -63 283 -51 295 3 4 61
-45 127 -107 140 -131 152 -139 179 -115 19 17 22 17 66 -14 66 -46 281 -128
371 -142 158 -25 325 27 434 134 156 153 258 440 221 619 -13 59 -40 95 -65
86 -8 -3 -24 -23 -34 -43 l-19 -37 -7 39 c-7 38 -30 74 -47 74 -16 0 -37 -55
-44 -115 -11 -86 -20 -96 -35 -38 -29 109 -120 223 -178 223 -37 0 -52 -17
-52 -57 0 -26 -5 -36 -24 -43 -13 -5 -35 -24 -49 -42 -56 -75 -61 -157 -18
-279 16 -46 27 -87 24 -92 -8 -13 -138 0 -202 19 -97 29 -177 73 -206 113 -16
25 -49 51 -88 72 -34 18 -120 71 -192 119 -154 103 -176 115 -261 141 -66 20
-136 19 -150 -2 -15 -25 -94 6 -94 36 0 8 11 17 25 21 13 3 42 30 64 58 35 47
46 55 103 70 128 36 265 96 311 137 62 54 81 106 75 207 -11 183 -135 331
-334 398 -86 28 -262 41 -341 24z m382 -86 c126 -50 218 -150 257 -277 18 -61
19 -76 9 -121 -17 -76 -57 -119 -156 -166 -46 -22 -87 -40 -91 -40 -3 0 19 20
49 46 30 25 58 53 62 62 4 9 10 63 12 119 5 91 3 106 -16 136 -12 19 -21 40
-21 47 0 26 -80 115 -155 174 -27 22 -54 43 -60 48 -15 14 40 -1 110 -28z
m-472 -19 c-3 -9 -8 -14 -10 -11 -3 3 -2 9 2 15 9 16 15 13 8 -4z m-15 -43
c-2 -11 5 -18 20 -20 12 -2 22 -8 22 -14 0 -15 31 -37 53 -38 11 0 32 -9 48
-21 16 -11 32 -18 36 -16 5 3 19 0 33 -6 14 -5 30 -11 35 -12 80 -14 128 -47
128 -89 0 -29 -13 -41 -78 -77 l-40 -22 34 36 34 36 -24 10 c-13 5 -28 6 -32
4 -5 -3 -17 3 -28 13 -11 10 -19 12 -19 6 0 -17 -31 -14 -52 5 -11 9 -18 11
-18 5 0 -21 -81 -13 -137 13 -48 23 -52 28 -43 46 7 12 8 43 4 79 -3 32 -4 66
0 75 7 20 27 9 24 -13z m-378 -240 c0 -5 -22 -10 -50 -11 -28 -1 -50 3 -50 9
0 5 23 10 50 10 28 0 50 -4 50 -8z m-155 -22 c-3 -5 -15 -10 -25 -10 -28 0
-89 -43 -90 -63 0 -10 -4 -15 -10 -12 -5 3 -10 -1 -10 -9 0 -9 -4 -16 -10 -16
-14 0 -12 -36 3 -52 7 -7 22 -27 34 -44 12 -17 28 -31 35 -31 7 0 33 -6 58
-13 25 -8 50 -14 55 -15 27 -3 65 -26 65 -38 0 -20 -120 -31 -189 -17 -95 18
-140 59 -141 128 0 53 20 93 64 127 65 50 180 96 161 65z m695 -154 c0 -26
141 -35 193 -12 9 5 17 4 17 -1 0 -6 -19 -17 -41 -26 -34 -13 -40 -20 -33 -34
13 -28 5 -152 -12 -178 -38 -58 -152 -72 -239 -31 -56 26 -95 66 -95 96 0 15
-7 20 -25 20 -32 0 -32 14 -1 28 17 8 26 22 31 51 8 48 8 49 105 77 92 27 100
28 100 10z m-530 -192 c0 -8 -9 -5 -23 9 -13 12 -21 26 -19 30 5 11 42 -23 42
-39z m5 -79 l-14 -40 -1 32 c0 39 10 67 21 56 5 -5 2 -26 -6 -48z m499 -75
c27 0 33 -5 41 -32 11 -38 65 -78 104 -78 l26 0 -25 -20 c-77 -59 -272 -45
-329 23 -10 13 -8 16 8 22 12 3 30 3 42 0 27 -9 59 20 59 55 0 31 9 43 28 35
7 -3 28 -5 46 -5z m1437 -93 c17 -18 48 -66 68 -107 28 -60 37 -91 41 -154 3
-47 10 -81 17 -83 15 -5 19 9 43 152 26 155 29 167 40 160 6 -3 10 -55 10
-115 0 -60 4 -111 10 -115 5 -3 16 20 25 52 51 186 85 204 85 46 0 -172 -114
-423 -236 -520 -103 -81 -263 -123 -358 -94 -17 6 -76 24 -131 40 -115 35
-290 113 -298 134 -4 11 58 242 69 256 1 1 15 -9 31 -23 62 -59 231 -116 340
-116 78 0 163 57 121 81 -9 5 -19 24 -23 42 -4 17 -15 58 -26 90 -25 75 -24
130 3 178 39 69 45 58 44 -79 -1 -121 0 -129 27 -178 33 -60 63 -78 97 -61 43
22 63 61 63 124 0 83 -25 157 -83 243 -27 41 -50 78 -50 82 0 14 40 -6 71 -35z
m-2760 -19 c45 -48 36 -64 -35 -60 -72 5 -100 -9 -132 -64 -45 -76 -28 -211
31 -250 24 -16 29 -16 60 -1 62 29 108 115 98 184 -6 35 11 73 32 73 30 0 47
-32 41 -77 -8 -63 -30 -99 -109 -181 -53 -54 -68 -75 -59 -84 19 -19 104 -27
197 -17 190 20 282 45 412 114 l82 43 6 -41 c3 -23 6 -87 8 -142 l2 -100 -135
-67 c-74 -37 -144 -70 -155 -74 -11 -3 -22 -7 -25 -8 -3 -1 -21 -6 -40 -10
-19 -5 -48 -14 -65 -21 -68 -29 -289 -53 -301 -33 -3 5 -27 8 -53 7 -94 -4
-227 95 -287 213 -46 90 -57 159 -51 308 5 133 21 210 44 217 9 3 10 -23 6
-104 -6 -125 8 -188 42 -188 18 0 22 14 41 137 22 137 39 203 53 212 4 3 6
-64 3 -148 -4 -145 2 -196 26 -196 4 0 7 37 8 83 3 215 157 381 255 275z
m1705 -2 c17 -14 11 -15 -62 -13 -61 1 -80 5 -77 14 7 18 114 17 139 -1z
m1039 -138 c53 -106 47 -208 -11 -196 -47 9 -83 140 -64 232 14 70 24 65 75
-36z m-1024 42 c81 0 121 -4 134 -13 16 -12 10 -14 -51 -17 -74 -3 -205 -3
-484 1 -96 1 -186 -1 -199 -6 -18 -5 -22 -4 -16 6 6 9 3 10 -11 4 -25 -10
-256 -17 -250 -6 7 11 102 31 171 35 33 2 179 2 325 0 146 -2 317 -4 381 -4z
m-1729 -60 c11 -62 -6 -112 -47 -149 -43 -38 -58 -39 -84 -5 -15 20 -21 41
-21 80 0 46 5 59 31 89 28 32 37 36 73 33 40 -3 41 -4 48 -48z m1863 -115 c55
-3 112 -6 128 -6 15 1 27 -3 27 -7 0 -5 11 -7 25 -4 14 2 25 0 25 -5 0 -11
-715 -12 -726 -1 -4 4 -11 5 -17 1 -5 -3 -51 -7 -101 -8 -50 -2 -136 -6 -191
-10 -142 -10 -366 -11 -371 -3 -5 8 29 17 56 16 8 0 67 4 130 11 63 6 180 13
260 17 80 3 146 7 147 8 5 5 514 -3 608 -9z m182 -157 c-2 -8 -24 -13 -58 -14
-30 0 -84 -2 -120 -4 -37 -1 -73 1 -80 6 -22 14 32 21 154 23 83 1 108 -2 104
-11z m-347 -7 c0 -20 -30 -28 -113 -29 -49 -1 -92 -4 -95 -6 -4 -2 -26 -1 -49
4 -23 4 -45 5 -48 2 -3 -3 -34 -7 -68 -9 -34 -2 -66 -4 -72 -5 -5 0 -14 1 -20
3 -5 1 -63 -3 -128 -10 -88 -10 -121 -11 -130 -2 -23 23 12 32 139 36 220 7
419 17 423 21 9 8 161 4 161 -5z m-820 -55 c-11 -11 -179 -17 -195 -7 -14 8
66 18 142 18 42 -1 60 -4 53 -11z m825 -151 c0 -19 -7 -20 -178 -20 -97 0
-177 -2 -177 -5 0 -3 -26 -6 -57 -6 -32 -1 -122 -4 -201 -8 -133 -6 -143 -6
-140 10 5 28 46 33 332 40 149 4 273 8 275 11 3 2 37 2 75 1 63 -3 71 -5 71
-23z m21 -174 c1 -21 -2 -22 -70 -20 -40 2 -77 0 -83 -4 -6 -4 -14 -3 -17 2
-6 10 -111 6 -128 -5 -6 -4 -61 -8 -122 -9 -137 -3 -322 -14 -358 -21 -23 -5
-28 -2 -28 14 0 22 28 28 175 37 44 3 109 8 145 10 36 3 153 7 260 11 107 4
197 8 199 10 11 10 26 -4 27 -25z m166 -103 c40 -23 118 -70 173 -104 55 -34
127 -75 160 -92 102 -51 247 -152 306 -212 60 -62 129 -184 129 -228 0 -19
-18 -44 -64 -89 l-65 -63 -121 0 c-68 0 -178 9 -253 20 -73 10 -199 28 -280
40 -82 11 -167 28 -190 36 -23 9 -100 29 -171 45 -72 16 -134 33 -139 38 -14
14 297 110 427 132 60 10 123 23 140 28 17 5 58 13 91 16 93 9 105 13 105 35
0 23 -31 34 -77 25 -34 -6 -39 -3 -141 97 -112 108 -146 128 -226 128 -47 0
-330 -55 -421 -82 -91 -27 -171 -20 -252 20 -126 64 -219 77 -285 40 -42 -24
-153 -168 -197 -256 -30 -58 -49 -139 -42 -175 9 -42 78 -91 112 -79 36 14
170 143 213 205 l37 54 147 46 c163 52 457 127 495 127 14 0 54 -17 91 -38 55
-33 111 -57 251 -108 15 -5 6 -10 -40 -21 -79 -18 -453 -126 -530 -153 -85
-29 -318 -85 -460 -110 -66 -12 -145 -27 -175 -35 -67 -17 -365 -72 -436 -81
-161 -20 -257 68 -209 192 44 116 275 285 667 487 l166 86 38 -30 c20 -16 49
-32 63 -36 14 -3 34 -12 43 -21 10 -8 26 -12 37 -9 11 3 25 -1 31 -8 6 -8 18
-11 26 -8 8 3 14 1 14 -5 0 -5 19 -10 43 -9 23 0 52 -5 65 -12 17 -9 27 -9 37
-1 9 7 15 8 20 1 4 -7 38 -10 88 -8 76 3 89 7 172 51 50 26 105 59 124 72 18
13 37 21 42 18 5 -3 9 2 9 10 0 8 6 13 13 11 6 -3 29 11 51 30 45 41 46 41
148 -17z m-110 -226 c42 -22 188 -141 188 -153 0 -14 -43 -11 -65 5 -11 7 -86
41 -167 76 -82 34 -148 66 -148 71 0 22 148 23 192 1z m-866 -13 c25 -6 44
-15 42 -19 -8 -21 -300 -288 -338 -309 l-43 -24 6 31 c8 40 91 217 124 265 15
21 38 45 52 52 32 17 97 19 157 4z m174 -33 c0 -2 -21 -11 -46 -20 -47 -16
-47 -16 -29 4 15 17 75 29 75 16z"/>
<path d="M2014 2258 c4 -29 8 -63 9 -76 3 -31 31 -24 35 8 3 25 -33 120 -45
120 -3 0 -2 -24 1 -52z"/>
<path d="M2097 2289 c-6 -22 -7 -22 -27 -4 -11 10 -23 15 -27 11 -12 -12 22
-61 42 -61 24 0 45 49 28 66 -7 7 -12 4 -16 -12z"/>
<path d="M1880 2276 c0 -8 8 -24 18 -37 23 -27 48 -21 62 17 13 32 3 46 -14
21 -16 -21 -46 -23 -46 -2 0 8 -4 15 -10 15 -5 0 -10 -6 -10 -14z"/>
<path d="M1990 2130 c0 -5 9 -10 21 -10 11 0 17 5 14 10 -3 6 -13 10 -21 10
-8 0 -14 -4 -14 -10z"/>
</g>
</svg>
