<?xml version="1.0" standalone="no"?>
<!DOCTYPE svg PUBLIC "-//W3C//DTD SVG 20010904//EN"
 "http://www.w3.org/TR/2001/REC-SVG-20010904/DTD/svg10.dtd">
<svg version="1.0" xmlns="http://www.w3.org/2000/svg"
 width="400.000000pt" height="355.000000pt" viewBox="0 0 400.000000 355.000000"
 preserveAspectRatio="xMidYMid meet">

<g transform="translate(0.000000,355.000000) scale(0.100000,-0.100000)"
fill="#000000" stroke="none">
<path d="M3725 3343 c-21 -84 -82 -241 -104 -267 -14 -17 -31 -40 -37 -51 -15
-27 -64 -31 -137 -10 -69 19 -83 13 -139 -56 -109 -136 -148 -161 -298 -186
-130 -22 -152 -40 -183 -148 -11 -37 -22 -54 -49 -71 l-35 -22 -56 66 c-54 63
-56 66 -37 79 17 12 20 26 20 89 0 89 -15 123 -67 155 -32 20 -51 24 -128 24
l-90 0 -17 -34 c-9 -18 -26 -43 -37 -55 -11 -11 -29 -42 -39 -67 -15 -35 -30
-51 -58 -65 -50 -25 -53 -40 -11 -60 35 -17 35 -17 39 -93 3 -42 3 -78 2 -80
-2 -2 -31 6 -65 19 -77 28 -144 27 -234 -1 -125 -40 -220 -24 -314 52 -29 23
-54 33 -88 36 -42 4 -61 -2 -158 -50 -170 -83 -288 -115 -323 -85 -30 27 -64
29 -88 7 -24 -23 -53 -20 -272 23 -93 18 -117 20 -133 10 -14 -9 -39 -11 -77
-6 -69 7 -92 -9 -76 -53 10 -30 2 -24 154 -95 114 -52 116 -53 210 -52 52 0
107 3 122 7 23 6 33 1 62 -28 39 -39 52 -42 83 -20 19 13 29 13 90 1 37 -8
257 -40 488 -72 231 -31 465 -64 520 -75 55 -10 127 -21 160 -24 136 -14 134
-13 170 -69 18 -28 51 -68 74 -89 22 -21 41 -44 41 -51 0 -8 -22 -30 -50 -50
-27 -19 -61 -53 -75 -75 -25 -36 -32 -41 -103 -56 -114 -24 -291 -74 -528
-149 -274 -85 -325 -104 -529 -193 -202 -89 -266 -121 -343 -170 -31 -21 -61
-38 -67 -38 -10 0 -11 -28 -4 -73 4 -20 -5 -26 -71 -53 -113 -44 -165 -58
-275 -74 -55 -8 -145 -30 -200 -50 -55 -19 -107 -35 -116 -35 -30 0 -69 -40
-69 -70 0 -44 27 -54 110 -39 39 7 110 10 166 7 103 -5 133 -15 213 -73 20
-15 48 -25 68 -25 28 0 37 6 51 32 9 17 26 41 37 53 23 24 159 80 173 71 5 -3
12 -20 16 -38 7 -36 32 -68 54 -68 8 0 38 22 67 49 101 91 304 194 537 271
319 106 961 230 1186 230 l78 0 49 -51 c45 -46 295 -245 368 -293 35 -23 21
-36 -40 -36 -24 0 -100 -11 -170 -25 -71 -13 -171 -31 -223 -40 -52 -9 -106
-24 -120 -34 -17 -12 -53 -20 -110 -25 -183 -15 -276 -24 -292 -31 -9 -3 -22
-20 -29 -37 -17 -41 -1 -124 58 -303 48 -143 85 -205 125 -205 26 0 40 33 28
65 -5 14 -10 76 -10 136 l0 109 33 35 c18 20 58 46 92 60 68 27 78 41 39 55
-37 14 -128 -13 -165 -49 -40 -41 -50 -88 -42 -223 5 -106 4 -118 -11 -118 -9
0 -18 6 -20 12 -108 394 -110 407 -43 409 18 0 91 10 163 22 l132 23 42 -171
c24 -93 50 -185 58 -203 16 -32 37 -39 37 -11 0 42 209 105 541 164 299 53
347 71 391 150 20 35 20 41 7 66 -8 16 -14 45 -14 66 -1 218 -235 647 -424
778 l-29 20 28 75 c23 63 28 91 27 170 0 214 -79 377 -232 481 -27 19 -50 39
-50 44 0 6 28 27 63 47 132 77 384 304 512 462 39 47 80 89 91 92 20 5 22 15
29 125 6 106 4 125 -15 183 -21 63 -53 116 -70 116 -4 0 -11 -12 -15 -27z m55
-91 c11 -40 14 -161 4 -186 -7 -19 -33 -20 -84 -5 l-38 12 24 51 c13 28 24 59
24 68 0 36 18 26 23 -13 3 -23 11 -47 17 -53 9 -8 10 12 4 83 -5 68 -4 92 4
87 6 -4 16 -23 22 -44z m-140 -221 c0 -6 -4 -13 -10 -16 -5 -3 -10 1 -10 9 0
9 5 16 10 16 6 0 10 -4 10 -9z m50 2 c0 -5 -4 -14 -9 -22 -11 -17 -32 -5 -24
14 5 15 33 21 33 8z m50 -24 c0 -5 -9 -9 -20 -9 -19 0 -26 11 -14 23 8 8 34
-3 34 -14z m-300 -54 c55 -19 91 -19 150 2 41 14 54 15 90 4 l43 -13 -104
-105 c-146 -147 -334 -312 -466 -407 -73 -52 -113 -87 -113 -99 0 -15 5 -17
29 -12 23 5 31 1 44 -18 9 -14 52 -61 96 -105 98 -96 135 -167 151 -290 13
-96 4 -157 -36 -259 -55 -141 -137 -229 -240 -259 -103 -30 -163 4 -264 146
-37 52 -83 109 -102 127 -35 34 -94 63 -128 63 -28 0 -25 14 11 45 l32 26 23
-22 c29 -27 31 -16 4 18 -19 24 -27 63 -14 63 3 0 34 -20 68 -45 62 -44 86
-54 86 -36 0 15 -32 47 -105 106 -96 77 -172 151 -209 205 -23 35 -31 41 -34
27 -4 -21 -21 -20 -186 19 -56 13 -204 41 -331 63 -126 22 -295 51 -375 65
-124 22 -412 56 -471 56 -13 0 -19 7 -19 24 0 50 8 56 72 56 79 0 152 22 271
82 127 64 164 66 236 14 55 -41 144 -76 190 -76 17 0 65 11 108 24 131 41 135
41 273 -2 69 -22 151 -43 182 -47 45 -6 62 -13 83 -37 43 -48 108 -73 195 -73
66 0 82 4 130 31 74 42 95 79 95 169 0 48 -6 84 -19 113 -16 35 -17 44 -6 57
20 24 60 42 110 49 181 27 245 64 329 188 25 37 65 78 77 78 1 0 21 -7 44 -15z
m-990 -101 c19 -7 53 -14 75 -14 33 -1 36 -3 19 -10 -12 -5 -25 -13 -29 -19
-8 -13 -8 -13 33 -2 18 6 30 6 27 1 -3 -5 -18 -11 -34 -15 -25 -5 -31 -12 -36
-47 -9 -50 4 -66 40 -50 55 25 91 7 59 -30 -15 -15 -27 -19 -56 -15 -42 6 -56
-4 -34 -23 19 -15 74 -16 88 -2 16 16 28 15 28 -2 0 -21 89 -136 105 -136 8 0
18 6 22 14 4 8 26 18 47 22 l39 7 -6 -49 c-12 -106 -128 -139 -271 -75 l-42
18 4 63 5 63 -34 -6 c-67 -13 -178 -20 -196 -13 -16 7 -16 9 7 27 l25 20 -25
-3 c-23 -3 -25 0 -26 43 0 25 -4 51 -8 58 -5 7 -1 20 7 29 8 9 18 27 21 40 6
17 15 22 43 22 38 0 43 23 5 28 -29 4 -28 23 3 56 18 19 31 26 43 21 9 -4 33
-14 52 -21z m425 -295 c8 -23 1 -34 -14 -24 -13 8 -15 45 -2 45 5 0 13 -9 16
-21z m13 -73 c3 -20 0 -27 -10 -24 -7 3 -14 17 -16 32 -3 20 0 27 10 24 7 -3
14 -17 16 -32z m-393 4 c3 -5 -3 -10 -14 -10 -11 0 -27 -7 -36 -16 -12 -12
-26 -15 -60 -10 -59 9 -67 26 -13 27 24 1 54 5 68 9 36 11 48 11 55 0z m-1845
-70 c49 -25 75 -26 66 -4 -6 15 -1 16 41 9 27 -4 86 -9 132 -11 46 -2 86 -5
88 -7 2 -3 1 -17 -3 -32 l-7 -28 -128 5 c-121 4 -132 7 -194 38 -36 18 -68 37
-71 42 -10 15 37 8 76 -12z m1849 -7 c13 -28 13 -28 -8 -9 -22 20 -27 36 -13
36 5 0 14 -12 21 -27z m365 21 c22 -8 20 -37 -4 -59 -30 -27 -47 -7 -30 34 14
34 12 33 34 25z m-1814 -30 c0 -17 -22 -14 -28 4 -2 7 3 12 12 12 9 0 16 -7
16 -16z m-10 -45 c0 -5 -7 -9 -15 -9 -15 0 -20 12 -9 23 8 8 24 -1 24 -14z
m1560 -20 c0 -12 -4 -11 -35 3 -35 16 -31 29 5 17 17 -6 30 -15 30 -20z m190
11 c18 -11 13 -16 -23 -25 -20 -5 -27 -3 -27 7 0 28 22 36 50 18z m-70 -27 c0
-14 -38 -17 -77 -7 -40 11 -25 23 27 22 34 -1 50 -6 50 -15z m-1680 -7 c0 -21
-21 -31 -30 -15 -5 7 -6 17 -4 21 9 14 34 9 34 -6z m1587 -660 c44 -21 63 -40
124 -123 135 -183 180 -218 289 -217 112 1 198 54 267 166 l37 60 91 -93 c67
-69 110 -126 162 -214 134 -225 174 -339 177 -505 l1 -74 -35 -17 c-19 -9
-136 -35 -260 -58 -272 -51 -428 -90 -532 -135 -43 -19 -80 -31 -82 -27 -2 3
-16 51 -30 106 -15 55 -34 121 -43 147 -15 43 -15 47 1 64 12 12 43 19 99 24
95 9 537 79 550 87 5 3 27 0 48 -7 32 -11 42 -11 52 -1 14 14 19 10 -143 131
-58 44 -130 99 -161 122 -31 24 -92 69 -136 100 -59 42 -80 62 -79 78 3 81
-353 61 -919 -51 -445 -88 -838 -248 -979 -399 -51 -54 -47 -56 -61 34 -9 57
-40 134 -80 200 -19 32 -35 60 -35 63 0 18 614 274 845 353 99 33 225 77 280
96 141 50 391 113 450 114 32 0 68 -9 102 -24z m-1632 -691 c21 -57 16 -70
-32 -85 -21 -7 -67 -27 -102 -44 -54 -26 -66 -37 -85 -76 -28 -59 -56 -63
-116 -17 -70 53 -99 64 -190 72 l-85 8 45 19 c25 11 90 26 145 34 122 18 218
51 310 108 44 27 74 40 81 35 6 -5 19 -30 29 -54z"/>
<path d="M3004 2202 l6 -64 -31 26 c-31 26 -59 34 -59 16 0 -16 48 -120 56
-120 3 0 4 14 0 32 -6 30 -5 30 12 15 20 -18 48 -22 56 -9 7 11 -18 124 -33
147 -10 17 -11 9 -7 -43z"/>
<path d="M3046 2234 c-4 -11 3 -19 23 -27 26 -10 28 -13 19 -39 -15 -41 -4
-58 36 -58 41 0 86 15 86 29 0 18 -33 43 -51 38 -14 -4 -17 1 -17 23 1 40 -9
50 -52 50 -25 0 -40 -5 -44 -16z"/>
<path d="M2810 2155 c-19 -22 -6 -45 22 -37 20 5 21 3 10 -11 -17 -21 -12 -77
9 -90 12 -8 26 -5 52 12 33 20 35 24 26 50 -13 38 -64 91 -87 91 -11 0 -25 -7
-32 -15z m80 -69 c0 -3 -4 -8 -10 -11 -5 -3 -10 -1 -10 4 0 6 5 11 10 11 6 0
10 -2 10 -4z"/>
<path d="M2723 2120 c-30 -12 -29 -29 5 -84 30 -51 50 -55 69 -15 16 32 1 84
-27 99 -21 11 -18 11 -47 0z m47 -66 c0 -8 -4 -12 -10 -9 -5 3 -10 13 -10 21
0 8 5 12 10 9 6 -3 10 -13 10 -21z"/>
<path d="M3015 2043 c-78 -28 -95 -39 -95 -59 0 -17 26 -12 108 17 67 24 70
24 44 -4 -25 -26 -20 -63 8 -72 10 -3 23 -19 29 -35 5 -17 15 -30 20 -30 6 0
11 -13 11 -30 0 -34 14 -39 29 -11 12 22 -4 81 -21 81 -6 0 -8 9 -5 20 3 11
-2 27 -10 36 -14 14 -14 17 6 30 41 29 17 85 -36 83 -10 0 -49 -12 -88 -26z"/>
<path d="M2314 2729 c-5 -9 13 -49 22 -49 17 0 44 23 44 38 0 12 -9 17 -30 18
-17 1 -33 -3 -36 -7z"/>
<path d="M2550 2685 c-8 -9 -8 -15 -2 -15 18 0 42 12 42 21 0 14 -26 10 -40
-6z"/>
</g>
</svg>
