<?xml version="1.0" standalone="no"?>
<!DOCTYPE svg PUBLIC "-//W3C//DTD SVG 20010904//EN"
 "http://www.w3.org/TR/2001/REC-SVG-20010904/DTD/svg10.dtd">
<svg version="1.0" xmlns="http://www.w3.org/2000/svg"
 width="400.000000pt" height="308.000000pt" viewBox="0 0 400.000000 308.000000"
 preserveAspectRatio="xMidYMid meet">

<g transform="translate(0.000000,308.000000) scale(0.100000,-0.100000)"
fill="#000000" stroke="none">
<path d="M1313 2873 c-105 -31 -174 -123 -177 -238 -2 -86 20 -151 66 -196 42
-41 68 -101 68 -160 l0 -38 -70 -22 c-38 -13 -70 -27 -70 -32 0 -5 -18 -6 -39
-2 -67 11 -101 -14 -188 -134 -97 -135 -176 -228 -189 -224 -17 6 -64 -37 -64
-56 0 -10 10 -31 22 -46 24 -31 26 -25 -46 -130 -21 -31 -56 -98 -78 -148 -35
-81 -39 -98 -34 -143 l6 -51 -67 -7 c-140 -14 -189 -62 -245 -239 l-31 -98 20
-27 c53 -72 253 -201 361 -233 23 -7 42 -15 42 -19 0 -4 -19 -11 -42 -14 -122
-19 -205 -141 -164 -241 42 -99 194 -108 525 -31 133 31 174 47 158 62 -3 4
-40 2 -81 -3 l-75 -9 -10 42 c-19 76 -19 77 57 48 129 -50 327 -113 356 -114
17 0 42 -12 62 -30 42 -37 90 -46 146 -29 37 12 47 21 70 69 15 30 28 47 28
38 0 -29 41 -41 153 -46 105 -5 108 -5 122 -32 24 -47 62 -55 250 -55 142 1
186 4 265 23 113 28 157 54 201 121 26 40 35 48 46 39 7 -6 16 -8 20 -4 8 7
18 147 18 252 l0 72 31 -37 c28 -32 32 -44 36 -116 6 -93 -3 -174 -25 -227
-14 -34 -20 -38 -52 -38 -19 0 -44 5 -54 12 -40 25 -71 -23 -34 -53 16 -14 79
-17 124 -6 51 13 85 141 75 279 -6 86 -5 87 16 79 17 -6 21 -17 24 -67 7 -123
15 -220 20 -255 6 -33 4 -37 -20 -43 -25 -6 -56 -50 -56 -80 0 -31 27 -44 85
-40 105 7 165 45 165 106 l0 38 45 0 c25 0 45 4 45 8 0 18 -26 32 -58 32 l-34
0 7 98 c10 149 8 543 -3 577 l-9 30 -6 -25 c-6 -24 -12 -156 -25 -562 -8 -231
-9 -233 -97 -233 -40 0 -51 3 -43 12 5 6 16 9 24 6 13 -5 15 30 12 273 l-4
279 -31 70 c-16 39 -42 87 -57 109 -24 35 -32 59 -50 138 -4 16 -13 28 -22 28
-14 0 -16 -10 -12 -59 3 -45 16 -82 56 -162 41 -81 54 -118 59 -169 l6 -65
-27 24 c-43 41 -76 106 -141 285 -34 93 -67 172 -73 174 -17 5 -15 -53 3 -115
8 -28 17 -70 19 -95 3 -24 10 -56 15 -72 12 -29 15 -234 5 -283 l-6 -30 -36
19 c-48 24 -87 23 -327 -7 -35 -4 -26 2 67 50 138 73 188 117 234 210 33 67
36 80 32 133 -9 93 -58 174 -133 218 -58 33 -253 74 -360 74 -144 0 -168 25
-212 229 l-26 121 43 82 c58 113 63 118 125 108 28 -5 76 -6 109 -3 56 6 58 5
52 -15 -9 -26 18 -36 76 -27 48 7 66 18 90 57 15 23 26 27 85 33 68 6 169 22
211 32 32 8 29 -14 -18 -108 -57 -112 -96 -238 -109 -344 -23 -206 -23 -200
-3 -225 15 -18 22 -21 37 -12 16 8 25 3 56 -31 31 -35 39 -40 52 -29 24 20 27
62 6 75 -11 7 -19 15 -19 18 0 4 -14 21 -30 39 l-30 32 -20 -23 c-23 -28 -24
-23 -10 76 17 121 49 240 95 359 25 63 45 121 45 130 0 8 7 16 16 18 12 2 1
26 -46 101 -58 92 -88 157 -72 157 4 0 12 -8 19 -19 6 -10 32 -28 57 -41 42
-20 48 -20 75 -7 27 13 30 13 34 -4 7 -26 34 -24 42 2 9 28 -11 64 -42 78 -24
11 -24 10 -18 -17 l6 -29 -45 7 c-54 8 -65 17 -107 81 -55 86 -79 168 -79 267
0 96 7 112 51 112 14 0 38 9 52 20 l25 20 26 -44 c48 -82 158 -138 299 -153
l57 -6 -6 -34 c-7 -37 9 -65 32 -56 9 3 14 -2 14 -17 0 -13 8 -24 20 -27 11
-3 18 -9 15 -13 -8 -14 6 -40 22 -40 10 0 12 -6 7 -22 -26 -82 -23 -120 21
-260 41 -129 30 -211 -34 -246 -89 -49 -131 39 -97 204 19 90 15 111 -20 120
-21 5 -24 12 -24 55 0 35 -4 49 -14 49 -33 0 -37 -102 -5 -136 19 -20 20 -27
10 -55 -14 -41 -14 -142 0 -194 6 -22 28 -56 50 -79 41 -41 40 -40 142 -24 14
2 23 -11 42 -62 62 -173 132 -311 238 -470 61 -91 125 -197 144 -235 53 -112
71 -249 65 -502 l-2 -92 -37 -10 c-55 -14 -339 -30 -403 -23 -45 6 -55 10 -55
26 0 12 14 26 37 38 33 17 42 18 73 7 25 -10 38 -10 46 -2 8 8 6 14 -10 22
-24 14 -122 133 -145 178 -38 75 -5 178 71 220 68 37 97 38 241 7 40 -8 8 33
-47 60 -95 48 -186 42 -249 -17 -40 -37 -74 -116 -80 -183 -5 -73 7 -116 55
-186 33 -48 35 -53 18 -63 -43 -25 -66 -52 -71 -85 -8 -50 13 -73 67 -75 24
-2 83 -6 130 -10 90 -8 292 15 334 38 11 6 25 10 31 9 27 -5 38 31 40 136 1
59 5 142 9 185 5 51 3 97 -4 135 -11 51 -10 62 7 103 41 95 56 195 57 369 0
146 -3 173 -23 230 -44 130 -163 312 -187 288 -4 -3 8 -61 24 -129 36 -145 44
-252 34 -449 l-8 -145 -42 60 c-133 189 -179 267 -254 425 -90 190 -89 182
-74 344 6 60 3 79 -23 155 -17 47 -32 107 -35 133 -4 45 -2 50 33 80 20 18 51
41 68 50 38 20 48 62 33 144 -14 73 -38 108 -79 112 -23 2 -33 10 -41 33 -5
16 -17 32 -25 35 -17 7 -64 -17 -90 -45 -24 -27 -26 -27 -143 10 -164 53 -230
97 -264 177 l-19 45 -47 -6 c-60 -7 -103 -49 -103 -103 0 -19 -5 -45 -12 -57
-6 -12 -15 -51 -20 -87 -5 -36 -11 -81 -14 -100 -4 -23 3 -63 20 -115 14 -43
24 -80 22 -82 -1 -1 -45 2 -97 8 -52 5 -128 11 -169 13 -56 3 -100 13 -175 41
-227 84 -242 88 -340 80 -97 -7 -172 -19 -182 -28 -3 -4 -1 -12 5 -20 6 -7 14
-35 17 -62 5 -41 2 -58 -17 -95 -29 -55 -71 -80 -148 -87 -91 -9 -145 11 -209
75 l-55 55 48 24 c36 18 51 21 61 13 10 -9 16 -7 24 9 17 31 13 80 -13 152
-20 57 -21 69 -9 84 15 22 18 55 4 55 -6 0 -13 -4 -16 -10 -11 -17 -43 -11
-50 10 -8 25 0 39 31 51 21 7 23 12 14 29 -14 27 -54 26 -73 -2 -15 -22 -16
-21 -16 27 -1 71 14 116 51 154 43 44 80 62 143 68 69 7 117 -10 150 -53 14
-19 30 -32 35 -29 13 8 -9 77 -33 104 -47 51 -111 62 -204 34z m1902 -393 c17
-19 17 -20 -18 -35 -20 -8 -40 -15 -45 -15 -5 0 -15 -7 -22 -15 -25 -30 -21
-6 5 39 29 50 52 57 80 26z m89 -76 c3 -9 6 -42 6 -74 0 -56 -1 -59 -47 -101
l-48 -44 -3 27 c-2 15 2 36 8 48 9 17 8 22 -11 28 -20 8 -19 9 15 36 61 46 44
55 -54 31 -23 -6 -22 -4 12 29 30 29 46 36 77 36 26 0 41 -5 45 -16z m-1397
-159 c90 -44 271 -105 312 -105 36 0 37 -6 21 -109 -6 -36 -13 -81 -16 -100
l-5 -33 -132 3 -131 4 -44 -90 c-43 -86 -45 -89 -54 -62 -23 64 -44 9 -34 -86
12 -99 35 -228 53 -285 14 -44 24 -56 60 -77 51 -31 62 -48 56 -97 -4 -32 -14
-44 -77 -89 -91 -68 -129 -81 -252 -87 -93 -4 -110 -2 -231 32 -72 20 -146 36
-166 36 -31 0 -38 5 -52 33 -8 17 -40 50 -71 72 -77 54 -86 65 -78 84 4 9 9
28 12 44 6 37 18 43 26 12 7 -27 33 -34 42 -11 3 8 -18 77 -47 152 -28 76 -56
154 -61 173 -16 59 -48 84 -48 39 0 -13 -9 -34 -20 -48 l-19 -25 -93 92 -92
93 55 49 c30 27 88 97 129 156 53 77 84 112 111 126 52 26 67 24 87 -12 60
-108 134 -167 224 -176 170 -17 281 108 244 275 l-8 32 44 1 c24 0 61 4 83 8
72 15 100 11 172 -24z m686 -41 c10 -19 13 -33 7 -29 -14 9 -42 65 -32 65 5 0
16 -16 25 -36z m-96 -77 l62 2 43 -77 c24 -42 45 -80 46 -84 2 -5 -20 -8 -50
-9 -29 0 -88 -6 -130 -13 -43 -7 -78 -10 -79 -7 0 3 1 35 2 71 2 36 2 80 2 98
-2 30 1 32 20 26 12 -5 50 -7 84 -7z m-156 -117 c-2 -63 -7 -123 -13 -132 -6
-12 -21 -18 -44 -18 -35 0 -36 1 -31 33 3 17 11 78 19 135 l12 103 31 -3 30
-3 -4 -115z m-1503 -321 c80 -78 102 -105 97 -120 -4 -10 -10 -19 -16 -19 -13
0 -171 143 -201 183 -20 26 -24 37 -15 46 6 6 16 11 22 11 5 0 56 -45 113
-101z m20 -143 c18 -9 32 -19 32 -21 0 -3 -18 -28 -40 -57 -22 -29 -40 -58
-40 -65 0 -7 72 -60 161 -118 132 -88 165 -114 189 -153 44 -72 71 -103 108
-125 30 -18 33 -22 18 -32 -35 -26 -13 -51 30 -34 57 21 47 51 -26 84 -22 10
-40 22 -40 28 0 5 6 7 13 4 6 -2 64 -22 127 -43 110 -37 121 -38 244 -39 l130
0 -135 -43 c-73 -23 -174 -50 -224 -58 -49 -9 -102 -18 -117 -21 l-28 -5 0 62
c0 82 -23 78 -30 -6 -4 -50 -6 -55 -13 -31 -10 38 -28 30 -42 -19 l-12 -39 -4
54 c-4 59 -23 79 -33 34 -4 -15 -16 -39 -27 -53 -17 -21 -20 -22 -15 -5 2 11
8 55 11 97 5 54 12 78 22 82 13 5 13 9 2 23 -19 22 -143 113 -199 146 -54 31
-175 57 -265 57 -81 0 -105 19 -105 83 0 34 15 69 83 189 l82 146 55 -52 c31
-29 70 -61 88 -70z m196 -169 c-9 -34 -18 -68 -20 -75 -4 -13 -59 13 -166 78
l-27 16 40 57 c25 35 45 54 54 51 16 -7 50 40 40 56 -4 6 1 20 11 31 17 19 18
17 51 -66 l33 -86 -16 -62z m2676 -1 c21 -93 29 -224 19 -323 -11 -117 -31
-243 -39 -243 -8 0 -32 72 -33 100 0 14 7 104 17 200 11 103 16 210 13 260 -5
87 4 90 23 6z m-1520 -146 c186 -45 201 -50 250 -87 45 -34 94 -102 105 -145
20 -78 -92 -195 -275 -288 -81 -41 -344 -133 -380 -133 -19 0 -60 7 -90 16
-30 9 -67 19 -82 22 -25 5 -28 10 -28 45 0 46 -18 60 -77 60 -30 0 -210 67
-232 86 -10 9 11 15 125 40 65 14 144 37 174 49 31 13 94 33 140 45 127 32
353 110 373 127 15 14 24 43 13 43 -3 0 -89 -25 -193 -56 -236 -70 -236 -69
-188 -43 43 23 172 122 193 147 6 9 12 35 12 59 0 53 -4 52 160 13z m-1260
-109 c52 -39 103 -76 113 -83 16 -12 16 -17 2 -68 -19 -71 -19 -160 -1 -186
13 -16 18 -17 36 -6 17 10 21 10 25 -3 3 -8 7 -22 10 -31 7 -22 27 -12 45 22
8 16 16 31 17 33 2 2 9 -2 17 -8 17 -15 36 -7 36 15 0 8 2 14 5 14 3 0 44 -22
93 -49 48 -27 119 -62 159 -77 44 -17 70 -32 66 -38 -45 -73 -179 -256 -188
-256 -25 0 -217 71 -363 134 -81 35 -217 94 -302 130 -305 131 -500 239 -500
274 1 29 86 185 111 204 43 33 143 46 339 47 l185 1 95 -69z m718 -480 c4 -22
-89 -232 -116 -263 -18 -21 -80 -24 -106 -5 -16 12 -10 24 80 159 86 126 101
145 119 138 11 -4 21 -17 23 -29z m-921 -66 c12 -9 20 -21 18 -28 -3 -6 4 -46
14 -87 19 -74 16 -89 -14 -90 -13 0 -45 116 -45 164 0 41 -15 56 -24 23 -10
-37 -7 -81 9 -133 11 -37 12 -50 2 -57 -7 -4 -54 -6 -106 -4 -106 4 -121 13
-121 78 0 77 28 110 117 134 66 18 124 18 150 0z m1839 -1 c18 -9 36 -25 39
-35 8 -25 -35 -100 -69 -122 -24 -16 -185 -67 -211 -67 -8 0 -14 25 -18 79 -5
80 -20 126 -38 116 -13 -8 -11 -58 5 -133 13 -62 12 -64 -8 -71 -12 -5 -51 -8
-87 -9 -65 0 -66 0 -67 27 0 14 -8 57 -16 94 -23 100 -25 97 42 97 l57 0 1
-58 c2 -66 26 -132 48 -132 21 0 20 30 -4 119 -12 40 -19 75 -18 76 4 3 248
32 281 34 16 0 44 -6 63 -15z m-754 -43 l55 -12 -5 -47 c-2 -26 -6 -48 -7 -49
-1 -2 -50 3 -110 11 -59 8 -114 12 -122 9 -10 -4 -7 10 12 48 40 80 40 80 84
64 20 -7 62 -18 93 -24z m-996 4 c13 -9 23 -30 27 -57 4 -24 9 -53 13 -65 5
-17 1 -22 -18 -25 -21 -3 -24 3 -40 67 -25 103 -23 110 18 80z m1230 -42 c0
-39 7 -74 22 -107 12 -27 21 -51 19 -53 -2 -1 -29 -4 -61 -4 -63 -2 -84 11
-110 66 -17 35 -21 102 -7 123 4 7 30 17 57 21 85 15 81 17 80 -46z m-1611
-13 c-3 -11 -7 -33 -7 -50 -1 -16 -5 -30 -10 -30 -11 0 -10 57 2 81 14 25 23
25 15 -1z"/>
<path d="M2133 498 c11 -69 39 -149 50 -145 17 6 13 94 -6 140 -21 49 -52 52
-44 5z"/>
<path d="M1538 2684 c-3 -5 -9 -24 -13 -41 -6 -29 -3 -34 19 -44 23 -11 24
-13 10 -34 -17 -26 -6 -40 25 -30 14 4 22 -4 35 -40 10 -24 16 -53 14 -62 -2
-10 -27 -30 -57 -44 -29 -14 -57 -32 -62 -40 -20 -31 -4 -139 21 -139 5 0 10
24 10 54 l0 53 43 17 c24 9 55 28 68 42 l23 25 -17 62 c-10 34 -21 76 -24 92
-3 17 -20 46 -37 66 -17 19 -36 44 -42 54 -6 10 -13 15 -16 9z"/>
<path d="M1466 2652 c-8 -13 8 -65 22 -70 17 -5 15 53 -2 67 -8 7 -17 8 -20 3z"/>
<path d="M1523 2457 c-3 -5 2 -16 11 -25 13 -13 20 -14 34 -6 31 20 26 41 -8
40 -18 -1 -34 -5 -37 -9z"/>
<path d="M2881 2407 c-16 -20 -24 -72 -17 -102 10 -39 56 -34 95 10 51 58 37
85 -24 45 -40 -26 -46 -25 -35 6 18 47 7 72 -19 41z"/>
<path d="M2710 1584 c-15 -38 -12 -100 5 -114 8 -6 23 -9 34 -5 11 3 34 -1 50
-10 29 -15 31 -14 46 9 18 28 17 87 -2 94 -8 2 -13 -5 -13 -15 0 -11 -6 -28
-14 -38 -13 -18 -14 -18 -26 6 -18 34 -18 34 -41 13 l-20 -18 7 52 c7 57 -9
73 -26 26z"/>
</g>
</svg>
