<?xml version="1.0" standalone="no"?>
<!DOCTYPE svg PUBLIC "-//W3C//DTD SVG 20010904//EN"
 "http://www.w3.org/TR/2001/REC-SVG-20010904/DTD/svg10.dtd">
<svg version="1.0" xmlns="http://www.w3.org/2000/svg"
 width="400.000000pt" height="295.000000pt" viewBox="0 0 400.000000 295.000000"
 preserveAspectRatio="xMidYMid meet">

<g transform="translate(0.000000,295.000000) scale(0.100000,-0.100000)"
fill="#000000" stroke="none">
<path d="M2866 2723 c-3 -21 -6 -63 -6 -94 l0 -56 133 25 c128 23 145 28 136
36 -5 5 -248 126 -253 126 -2 0 -6 -17 -10 -37z m138 -53 l81 -37 -65 -11
c-36 -6 -85 -14 -109 -17 l-44 -7 6 38 c4 22 7 49 7 62 0 28 6 27 124 -28z"/>
<path d="M2175 2636 c-27 -13 -64 -37 -82 -54 -32 -30 -73 -100 -73 -126 0
-21 -11 -26 -77 -32 -142 -12 -218 -43 -255 -102 -27 -44 -21 -127 11 -153 25
-20 44 -65 42 -98 0 -13 6 -33 16 -43 25 -28 114 -51 169 -42 l46 7 -4 -29
c-3 -28 -5 -29 -73 -37 -38 -4 -113 -7 -165 -7 -84 1 -173 -8 -263 -26 -37 -8
-64 -48 -47 -69 7 -8 20 -15 30 -15 13 0 16 -6 12 -25 -3 -17 0 -25 9 -25 16
1 73 13 107 24 21 7 23 5 17 -13 -10 -33 14 -35 117 -8 51 14 95 24 97 22 2
-2 4 -19 6 -37 3 -40 14 -43 143 -30 84 9 96 8 135 -12 26 -13 68 -22 110 -24
37 -3 67 -8 67 -13 0 -5 -7 -27 -16 -50 -12 -29 -21 -39 -33 -35 -139 45 -324
79 -524 96 -155 14 -218 9 -291 -23 -68 -29 -502 -356 -514 -387 -2 -4 4 -15
13 -23 14 -14 9 -20 -55 -61 -81 -53 -106 -56 -176 -22 -143 71 -209 96 -251
96 -45 0 -83 -14 -83 -30 0 -5 64 -61 143 -123 78 -63 179 -146 224 -185 l81
-71 53 37 c29 20 56 46 59 57 3 11 28 41 56 67 l51 48 38 -55 c21 -31 41 -58
46 -60 4 -3 21 7 37 22 16 16 82 64 147 108 114 77 248 194 257 225 4 12 9 11
29 -6 38 -33 116 -60 229 -79 177 -29 180 -20 -37 -128 -106 -53 -241 -125
-300 -160 -60 -35 -157 -92 -218 -127 -60 -34 -134 -77 -164 -94 -29 -17 -67
-43 -83 -58 -24 -22 -27 -31 -19 -47 6 -11 11 -22 11 -24 0 -15 -81 -29 -190
-34 l-126 -6 -144 58 c-121 48 -152 56 -188 52 -47 -5 -97 -35 -97 -57 0 -7
52 -49 115 -93 63 -44 158 -114 210 -156 52 -42 112 -89 133 -104 l38 -29 32
25 c26 20 262 123 327 143 10 4 28 -12 49 -43 39 -55 82 -103 92 -103 4 0 9 8
11 18 9 33 90 89 248 171 203 105 271 132 476 191 395 114 660 274 779 470 39
65 68 164 67 230 0 25 3 61 8 80 5 19 10 54 11 77 3 38 5 41 28 40 25 -2 26 0
23 48 -5 71 -27 156 -58 217 -42 83 -122 196 -172 244 -25 24 -43 46 -40 49 2
3 73 10 157 15 169 12 173 11 191 -46 13 -40 21 -42 36 -11 11 24 116 220 120
225 9 13 134 -65 134 -84 0 -3 -12 -26 -26 -50 -24 -41 -25 -47 -11 -61 21
-21 62 -5 108 43 18 19 36 34 40 34 20 0 31 -78 25 -176 l-7 -104 26 -12 c25
-11 30 -10 60 23 23 26 38 57 51 108 10 39 22 71 25 71 4 0 5 -26 1 -57 -11
-97 -9 -127 9 -131 44 -9 109 91 129 200 6 28 12 53 13 55 2 1 22 -4 45 -13
24 -10 48 -13 59 -9 10 5 24 7 31 6 23 -4 12 24 -33 81 -56 72 -141 139 -224
179 -70 33 -283 95 -364 105 -29 4 -58 11 -64 17 -9 6 -17 6 -25 -1 -7 -5 -83
-12 -168 -15 -146 -5 -208 -15 -392 -62 l-27 -7 22 40 c17 32 20 46 12 68 -16
45 -59 69 -120 68 -50 0 -54 1 -59 28 -3 15 -15 37 -26 48 -29 29 -119 28
-185 -4z m905 -205 c0 -5 -11 -31 -24 -58 -25 -48 -68 -187 -82 -257 -6 -33
-19 -42 -19 -13 0 30 -208 31 -375 2 -159 -28 -390 -111 -390 -140 0 -18 2
-18 32 -6 13 6 92 29 176 52 l153 42 45 -44 c94 -91 226 -317 249 -427 l7 -33
-39 15 c-91 34 -142 41 -283 41 -80 0 -168 -3 -197 -8 l-52 -8 10 33 c21 76 9
92 -76 103 -27 3 -70 13 -95 22 l-47 17 -7 150 -7 151 54 50 c64 60 233 162
337 203 143 56 329 101 480 115 77 8 150 7 150 -2z m207 -31 c246 -63 321 -99
432 -207 59 -58 63 -64 36 -57 -51 13 -88 10 -91 -6 -28 -147 -62 -240 -89
-240 -13 0 -15 6 -8 38 15 68 10 160 -9 179 -25 25 -34 11 -63 -101 -14 -54
-30 -107 -36 -118 -15 -27 -45 -19 -42 12 15 163 14 196 -4 230 -10 19 -25 36
-35 38 -9 2 -40 -18 -69 -44 -54 -48 -78 -46 -40 2 29 37 26 65 -10 102 -35
36 -123 67 -170 60 -16 -3 -29 -1 -29 4 0 4 14 37 32 73 25 51 37 65 54 65 13
0 76 -14 141 -30z m-212 -140 c6 -9 -53 -125 -60 -118 -6 6 38 128 46 128 4 0
11 -5 14 -10z m-1056 -54 c9 -11 9 -20 2 -35 -15 -27 -14 -31 8 -31 31 0 35
-18 10 -54 -28 -41 -46 -53 -93 -61 -29 -6 -36 -4 -36 9 0 20 -9 20 -30 1 -24
-22 -91 2 -100 36 -4 13 -14 39 -23 56 -10 18 -17 34 -17 37 0 2 24 4 53 4 30
0 64 5 76 11 12 7 35 10 51 6 23 -5 31 -2 40 14 12 24 42 27 59 7z m14 -318
c-2 -5 -3 -34 -3 -67 l0 -58 -86 -7 c-47 -4 -87 -6 -89 -4 -1 2 -5 33 -9 70
l-6 67 77 4 c101 4 119 4 116 -5z m-238 -37 l0 -34 -85 -23 c-46 -13 -85 -22
-87 -20 -2 1 8 13 22 26 50 47 19 67 -88 56 -47 -4 -56 -3 -38 5 28 11 176 27
236 25 39 -1 40 -2 40 -35z m-176 -35 c-2 -2 -31 -6 -64 -9 -39 -4 -54 -3 -45
3 14 9 119 15 109 6z m-5 -186 c14 -5 28 -5 30 -1 3 5 25 5 48 0 24 -5 77 -11
118 -15 74 -6 100 -19 100 -51 0 -16 -75 -71 -108 -80 -18 -4 -29 -1 -39 12
-11 17 -13 17 -13 2 0 -9 9 -21 19 -27 24 -12 58 -1 105 35 34 26 46 24 46 -6
0 -16 60 -233 76 -273 6 -16 4 -17 -12 -8 -10 5 -83 24 -161 41 -150 33 -217
57 -209 76 2 7 0 18 -5 26 -7 11 -9 9 -9 -8 0 -24 -14 -31 -25 -13 -11 18 -51
10 -75 -15 -28 -29 -37 -30 -67 -7 -22 17 -22 19 -11 125 6 59 15 107 19 107
4 0 34 -31 65 -70 31 -38 59 -70 61 -70 5 0 -44 63 -100 128 -40 48 -35 85 13
93 56 10 107 10 134 -1z m-184 -30 c0 -5 -2 -10 -4 -10 -3 0 -8 5 -11 10 -3 6
-1 10 4 10 6 0 11 -4 11 -10z m-18 -17 c12 -15 13 -32 6 -103 -5 -47 -13 -98
-16 -113 l-7 -28 -92 60 c-51 33 -93 62 -93 65 0 6 173 136 181 136 3 0 13 -8
21 -17z m532 8 c3 -5 -1 -14 -9 -21 -8 -7 -15 -10 -15 -7 0 3 -3 12 -6 21 -7
17 20 23 30 7z m101 -21 c70 -15 87 -19 124 -31 46 -15 240 -87 266 -99 11 -5
44 -19 73 -31 l53 -22 -100 -52 c-198 -104 -271 -175 -257 -249 6 -33 42 -74
83 -95 29 -15 128 -41 183 -48 25 -3 47 -7 50 -10 5 -5 -50 -53 -62 -53 -4 0
-9 10 -11 23 -2 14 -4 11 -3 -8 1 -29 -5 -33 -119 -90 -108 -54 -333 -140
-343 -131 -2 2 1 39 7 81 6 42 10 88 10 103 -1 15 -7 -18 -15 -73 -7 -55 -16
-105 -18 -111 -5 -13 -93 -37 -107 -29 -5 4 -9 14 -9 23 0 30 -47 119 -71 136
-33 23 -100 21 -133 -5 -26 -21 -66 -87 -66 -111 0 -6 11 10 25 38 55 111 159
112 211 1 28 -62 31 -95 7 -104 -10 -3 -60 -23 -110 -44 -51 -22 -97 -39 -103
-39 -5 0 -35 52 -67 115 -31 63 -59 113 -61 111 -1 -2 15 -41 38 -86 22 -46
40 -87 40 -92 0 -5 7 -16 15 -24 23 -24 19 -30 -44 -63 -33 -17 -86 -46 -118
-65 -32 -19 -59 -33 -60 -32 -1 1 20 69 46 151 47 144 81 278 47 180 -8 -22
-36 -109 -62 -193 -44 -140 -50 -154 -80 -173 -18 -11 -44 -33 -58 -50 -14
-16 -26 -29 -29 -29 -2 0 -25 31 -50 68 l-47 69 0 129 0 129 48 22 c26 12 97
51 157 87 61 36 113 66 117 66 4 0 11 -18 14 -40 4 -22 10 -40 15 -40 12 0 12
47 0 52 -17 6 -17 42 1 46 12 2 15 -3 12 -20 -2 -13 1 -9 7 8 9 26 29 42 103
82 135 74 234 122 251 122 8 0 48 -16 89 -37 l74 -36 0 -56 c0 -69 19 -231 28
-240 3 -3 4 21 0 54 -3 33 -8 100 -12 148 l-6 88 43 -21 c39 -19 50 -33 93
-116 27 -52 51 -92 54 -90 2 3 -14 38 -37 79 -23 41 -41 80 -41 86 0 6 50 -14
111 -45 61 -30 114 -53 117 -50 2 3 -53 34 -123 68 l-127 63 -29 67 c-15 37
-32 84 -38 103 -12 44 -14 42 132 136 59 39 105 75 101 80 -3 6 -50 -14 -111
-46 -58 -31 -107 -54 -110 -51 -3 2 7 66 22 141 14 76 24 139 22 142 -3 2 -17
-60 -32 -139 -15 -79 -33 -151 -40 -161 -12 -17 -14 -14 -28 25 -21 59 -33 99
-56 193 l-20 80 21 22 c23 25 41 27 103 13z m685 -34 c58 -10 65 -14 69 -36 4
-33 -20 -160 -31 -160 -4 0 -72 32 -150 71 -79 39 -177 84 -218 101 -41 16
-77 32 -79 34 -10 9 349 1 409 -10z m-1430 -151 l100 -65 0 -44 0 -44 -135
-101 -135 -101 0 79 c0 88 2 91 73 91 177 0 177 103 1 143 -53 12 -59 16 -62
41 -2 18 4 33 20 46 13 11 26 19 30 20 4 0 53 -29 108 -65z m-170 -5 c0 -13
-7 -20 -20 -20 -23 0 -26 10 -8 28 18 18 28 15 28 -8z m1544 -38 c49 -20 91
-42 93 -48 2 -6 -20 -10 -60 -10 -48 0 -73 -6 -107 -25 -64 -36 -84 -81 -88
-201 -4 -113 2 -108 -113 -84 -122 26 -183 72 -181 137 2 59 71 118 242 208
63 33 117 60 120 60 3 0 45 -16 94 -37z m-1556 8 c13 0 17 -65 6 -119 l-6 -31
-69 0 c-64 0 -69 2 -89 31 -12 16 -20 32 -18 35 3 2 32 25 64 49 39 30 66 43
79 40 11 -3 26 -5 33 -5z m181 -58 c56 -42 29 -66 -91 -80 l-68 -8 0 72 0 73
66 -19 c37 -10 78 -27 93 -38z m142 7 c22 -11 18 -23 -12 -39 -17 -10 -19 -7
-19 20 0 33 2 35 31 19z m1332 -35 c11 -12 -21 -92 -64 -157 -44 -66 -139
-157 -164 -157 -27 0 -34 147 -11 213 28 76 75 106 172 107 33 0 63 -3 67 -6z
m-1808 -114 c14 -27 25 -56 25 -63 0 -19 -113 -97 -140 -97 -30 0 -80 53 -80
85 0 19 9 31 31 43 17 9 52 32 77 50 26 17 50 32 54 32 4 0 19 -22 33 -50z
m153 -50 c-2 -49 -8 -93 -12 -97 -4 -4 -16 3 -26 17 -20 26 -90 153 -90 164 0
3 30 6 66 6 l66 0 -4 -90z m901 38 c0 -18 -4 -54 -7 -79 l-7 -47 -73 37 -73
37 73 41 c40 23 76 42 81 42 4 1 7 -14 6 -31z m66 -147 l7 -24 -32 19 c-18 10
-32 22 -32 27 1 4 2 28 3 55 l1 47 22 -50 c13 -27 27 -61 31 -74z m-975 -428
l0 -108 -29 45 c-16 25 -40 56 -55 69 -14 14 -26 29 -26 35 0 10 86 65 103 66
4 0 7 -48 7 -107z m-88 -45 c14 -18 33 -48 42 -65 l16 -33 -27 -6 c-16 -4 -68
-22 -117 -41 -49 -18 -95 -32 -102 -29 -22 8 -74 88 -74 112 0 20 8 24 58 34
67 13 139 38 147 51 11 18 33 9 57 -23z"/>
<path d="M1785 2139 c-4 -6 -5 -12 -4 -13 8 -7 69 7 69 15 0 13 -57 11 -65 -2z"/>
<path d="M1840 2099 c0 -6 -7 -8 -16 -5 -8 3 -12 2 -9 -4 10 -15 35 -12 35 5
0 8 -2 15 -5 15 -3 0 -5 -5 -5 -11z"/>
<path d="M1752 1575 c0 -16 2 -22 5 -12 2 9 2 23 0 30 -3 6 -5 -1 -5 -18z"/>
<path d="M1621 1494 c0 -11 3 -14 6 -6 3 7 2 16 -1 19 -3 4 -6 -2 -5 -13z"/>
<path d="M2033 1400 c0 -30 2 -43 4 -27 2 15 2 39 0 55 -2 15 -4 2 -4 -28z"/>
<path d="M1595 2571 c-47 -28 -124 -117 -147 -167 -30 -70 -38 -244 -10 -244
4 0 9 17 10 37 4 59 45 117 141 199 113 96 132 133 91 174 -25 25 -46 25 -85
1z m83 -37 c2 -16 -12 -35 -55 -70 -71 -60 -154 -142 -170 -169 -22 -36 -3 45
23 95 61 122 192 215 202 144z"/>
<path d="M1254 2435 c-9 -14 -17 -42 -17 -63 0 -52 58 -162 85 -162 5 0 4 9
-2 20 -6 11 -10 58 -9 103 3 90 -5 127 -26 127 -8 0 -22 -11 -31 -25z m35 -87
c-1 -79 -1 -81 -14 -53 -17 36 -19 89 -5 116 6 10 13 19 15 19 3 0 5 -37 4
-82z"/>
<path d="M1020 2063 c-28 -10 -59 -46 -71 -80 -31 -96 87 -206 186 -173 110
36 113 184 5 241 -33 18 -88 24 -120 12z m122 -39 c57 -30 84 -96 58 -145 -14
-25 -62 -49 -100 -49 -103 0 -181 118 -117 178 45 43 96 48 159 16z"/>
<path d="M3118 1812 c-12 -31 -16 -33 -46 -27 -18 3 -40 9 -48 12 -8 3 -14 1
-14 -5 0 -5 18 -17 41 -26 32 -13 39 -20 34 -34 -3 -9 -9 -30 -12 -46 -8 -40
12 -26 27 19 12 38 16 40 52 26 44 -16 78 -21 78 -13 0 5 -21 17 -47 27 -62
23 -67 28 -53 54 6 12 9 27 7 34 -3 7 -11 -3 -19 -21z"/>
<path d="M719 1755 c-7 -30 -10 -58 -6 -61 9 -9 162 14 202 31 20 8 34 19 30
24 -7 13 -173 63 -188 58 -15 -6 22 -22 97 -43 73 -20 61 -30 -48 -40 l-78 -7
7 47 c10 64 -1 58 -16 -9z"/>
<path d="M890 1544 c-52 -19 -110 -39 -128 -45 -18 -6 -31 -13 -28 -16 6 -6
211 62 246 82 38 22 15 16 -90 -21z"/>
<path d="M1035 1525 c-100 -36 -244 -102 -279 -130 -43 -33 -3 -22 105 28 63
30 151 69 197 87 45 18 85 37 88 41 8 14 -4 11 -111 -26z"/>
<path d="M3147 1342 c-40 -24 -44 -56 -17 -130 27 -76 24 -129 -15 -241 -31
-88 -23 -106 29 -66 109 83 167 287 112 393 -33 64 -58 74 -109 44z m82 -41
c41 -41 40 -158 -3 -245 -25 -50 -85 -131 -92 -123 -2 1 5 32 16 68 26 83 25
171 0 228 -25 53 -25 67 -2 80 27 16 60 13 81 -8z"/>
<path d="M320 1187 c0 -24 46 -73 115 -123 22 -15 74 -60 115 -99 86 -81 182
-141 204 -128 11 6 -18 36 -117 120 -73 62 -161 134 -197 161 -36 27 -74 59
-84 71 -25 27 -36 27 -36 -2z"/>
<path d="M2946 1188 c-8 -13 -22 -52 -32 -88 -39 -147 -119 -283 -233 -395
-34 -33 -61 -67 -61 -77 0 -17 5 -16 53 8 133 67 260 186 309 290 35 75 62
202 54 249 -6 32 -10 35 -41 35 -25 0 -39 -6 -49 -22z m71 -71 c-12 -132 -75
-242 -197 -344 -41 -34 -76 -60 -78 -58 -3 2 17 28 42 57 54 62 129 209 146
288 21 94 35 120 66 120 l27 0 -6 -63z"/>
<path d="M206 553 c-6 -16 31 -69 81 -114 54 -50 360 -259 379 -259 47 1 47
17 -2 51 -27 18 -91 66 -142 107 -187 148 -310 232 -316 215z"/>
<path d="M1920 421 l-45 -6 -3 -59 c-4 -69 2 -76 71 -76 l47 0 0 44 c0 51 -10
107 -19 104 -3 0 -26 -4 -51 -7z m50 -64 l6 -47 -44 0 -43 0 3 42 c2 35 7 43
28 49 39 11 45 6 50 -44z"/>
</g>
</svg>
