<svg width="31" height="31" viewBox="0 0 31 31" fill="none" xmlns="http://www.w3.org/2000/svg">
<path fill-rule="evenodd" clip-rule="evenodd" d="M0.452149 3.3904C0.452149 2.72567 0.716211 2.08817 1.18625 1.61813C1.65628 1.1481 2.29378 0.884037 2.95851 0.884037H27.9431C28.2725 0.883499 28.5988 0.947941 28.9032 1.07367C29.2077 1.19941 29.4844 1.38396 29.7175 1.61677C29.9505 1.84958 30.1354 2.12607 30.2615 2.43041C30.3875 2.73476 30.4523 3.06098 30.4521 3.3904V28.3749C30.4525 28.7044 30.3879 29.0308 30.262 29.3352C30.1361 29.6397 29.9515 29.9164 29.7185 30.1495C29.4856 30.3825 29.209 30.5673 28.9046 30.6934C28.6002 30.8194 28.2739 30.8842 27.9444 30.884H2.95851C2.62926 30.884 2.30323 30.8192 1.99905 30.6931C1.69488 30.5671 1.41852 30.3823 1.18576 30.1495C0.953008 29.9166 0.768419 29.6401 0.642543 29.3359C0.516667 29.0316 0.45197 28.7056 0.452149 28.3763V3.3904ZM12.3267 12.3222H16.389V14.3622C16.9753 13.1895 18.4753 12.134 20.7294 12.134C25.0508 12.134 26.0749 14.4699 26.0749 18.7559V26.6949H21.7017V19.7322C21.7017 17.2913 21.1153 15.914 19.6262 15.914C17.5603 15.914 16.7012 17.399 16.7012 19.7322V26.6949H12.3267V12.3222ZM4.82669 26.5081H9.20124V12.134H4.82669V26.5068V26.5081ZM9.82715 7.44585C9.8354 7.82041 9.76875 8.19284 9.63111 8.54128C9.49348 8.88973 9.28763 9.20718 9.02565 9.47499C8.76366 9.7428 8.45083 9.95559 8.1055 10.1009C7.76016 10.2461 7.38929 10.321 7.01465 10.321C6.64 10.321 6.26913 10.2461 5.9238 10.1009C5.57847 9.95559 5.26563 9.7428 5.00365 9.47499C4.74167 9.20718 4.53582 8.88973 4.39819 8.54128C4.26055 8.19284 4.1939 7.82041 4.20215 7.44585C4.21834 6.71066 4.52176 6.01102 5.04745 5.49679C5.57313 4.98256 6.27927 4.69461 7.01465 4.69461C7.75003 4.69461 8.45617 4.98256 8.98185 5.49679C9.50753 6.01102 9.81096 6.71066 9.82715 7.44585Z" fill="black"/>
</svg>
