<?xml version="1.0" standalone="no"?>
<!DOCTYPE svg PUBLIC "-//W3C//DTD SVG 20010904//EN"
 "http://www.w3.org/TR/2001/REC-SVG-20010904/DTD/svg10.dtd">
<svg version="1.0" xmlns="http://www.w3.org/2000/svg"
 width="560.000000pt" height="285.000000pt" viewBox="0 0 560.000000 285.000000"
 preserveAspectRatio="xMidYMid meet">

<g transform="translate(0.000000,285.000000) scale(0.100000,-0.100000)"
fill="#DD3830" stroke="none">
<path d="M3740 2504 c-85 -37 -134 -116 -134 -215 0 -53 5 -74 27 -112 15 -25
37 -53 48 -61 21 -14 20 -15 -19 -35 -54 -27 -127 -111 -146 -168 -9 -26 -16
-78 -16 -117 0 -125 73 -236 189 -289 35 -16 66 -22 126 -22 99 0 172 30 239
100 l45 47 69 -56 c38 -31 73 -56 78 -56 5 0 36 30 68 66 59 66 59 67 39 83
-53 41 -183 155 -183 159 0 3 14 48 30 100 17 52 29 96 28 97 -2 1 -39 14 -82
29 -81 26 -95 24 -96 -12 0 -8 -15 -2 -40 14 -22 15 -40 29 -40 33 0 3 13 15
30 26 49 33 81 104 81 179 0 99 -48 175 -133 210 -48 20 -162 20 -208 0z m150
-174 c11 -11 20 -26 20 -33 0 -24 -31 -57 -55 -57 -49 0 -72 55 -38 92 21 24
48 23 73 -2z m-3 -465 c47 -55 19 -143 -51 -161 -101 -25 -169 94 -96 168 28
28 36 30 78 25 34 -4 53 -12 69 -32z"/>
<path d="M1354 2471 c-91 -39 -99 -182 -12 -227 48 -25 115 -14 150 25 72 80
28 196 -79 207 -21 2 -47 0 -59 -5z"/>
<path d="M430 1960 l0 -510 105 0 c105 0 105 0 105 24 l0 25 58 -27 c77 -37
206 -37 297 -2 82 32 164 114 194 195 49 130 35 287 -34 393 -66 99 -162 146
-300 146 -66 0 -90 -5 -139 -27 -32 -15 -60 -27 -62 -27 -2 0 -4 72 -4 160 l0
160 -110 0 -110 0 0 -510z m477 33 c83 -39 119 -171 71 -263 -13 -25 -39 -55
-58 -68 -30 -20 -45 -23 -102 -20 -78 4 -110 23 -146 84 -19 33 -22 51 -20
111 4 80 20 111 78 151 41 27 125 30 177 5z"/>
<path d="M2860 1840 l0 -630 110 0 110 0 0 277 c0 172 4 273 9 267 6 -5 65
-103 133 -219 l124 -210 137 -3 c75 -1 137 -1 137 2 0 2 -72 118 -161 257 -89
139 -163 258 -166 266 -3 7 44 81 104 164 59 84 112 158 116 166 6 10 -15 13
-117 13 l-126 0 -92 -137 -93 -138 -3 278 -2 277 -110 0 -110 0 0 -630z"/>
<path d="M1781 2446 c-33 -18 -50 -53 -50 -101 -1 -65 44 -105 117 -105 75 0
126 72 102 146 -21 63 -108 94 -169 60z"/>
<path d="M2051 2446 c-33 -18 -50 -53 -50 -101 -1 -65 44 -105 117 -105 75 0
126 72 102 146 -21 63 -108 94 -169 60z"/>
<path d="M1882 2195 c-113 -25 -209 -101 -259 -205 -36 -74 -44 -212 -18 -291
36 -108 113 -191 214 -231 82 -32 232 -31 316 2 83 32 174 123 204 204 92 246
-40 485 -290 525 -78 13 -88 13 -167 -4z m155 -196 c125 -47 152 -251 43 -329
-39 -27 -113 -37 -162 -21 -128 42 -151 258 -35 334 42 27 107 34 154 16z"/>
<path d="M2706 2175 c-44 -23 -46 -24 -46 -5 0 19 -7 20 -110 20 l-110 0 0
-490 0 -490 110 0 110 0 0 358 c0 283 3 362 13 376 9 12 31 20 65 24 l52 5 0
113 c0 131 -2 133 -84 89z"/>
<path d="M1290 1805 l0 -385 -25 -16 c-24 -15 -25 -21 -25 -106 l0 -91 63 7
c96 11 147 40 180 105 l27 55 0 408 0 408 -110 0 -110 0 0 -385z"/>
<path d="M4465 1424 c-22 -8 -57 -28 -77 -45 l-38 -30 0 26 c0 37 -32 33 -79
-10 -36 -33 -40 -34 -43 -15 -3 19 -5 19 -41 -11 -21 -17 -53 -51 -71 -75 -32
-41 -35 -43 -41 -24 l-7 22 -25 -23 c-37 -36 -92 -156 -104 -227 -18 -117 18
-229 109 -338 45 -54 52 -68 52 -106 0 -149 117 -264 309 -303 78 -17 92 -15
71 10 -18 22 -9 26 33 14 45 -12 153 -8 150 6 -1 6 -5 18 -8 27 -6 16 0 18 46
18 77 0 102 9 96 31 -4 16 3 21 39 30 50 13 61 24 45 43 -9 10 3 20 55 46 l67
33 -39 32 -38 32 42 8 c47 8 52 17 20 39 -26 18 -25 19 30 35 43 12 52 27 30
50 -11 10 -10 14 2 21 8 5 37 24 63 43 48 34 48 35 27 50 -22 15 -22 15 32 68
42 41 49 53 36 56 -10 3 -18 7 -18 10 0 3 25 33 56 66 l56 62 -28 5 c-27 5
-27 6 29 48 66 51 93 87 74 99 -6 4 -58 9 -114 11 -95 4 -119 11 -93 27 29 18
4 26 -70 23 -44 -2 -80 -1 -80 1 0 3 7 13 17 23 15 17 14 18 -43 18 -32 -1
-77 -7 -99 -15 -22 -8 -41 -15 -42 -15 -2 0 -3 11 -3 25 0 30 3 29 -50 10 -55
-19 -53 -20 -46 15 3 17 3 30 0 30 -2 0 -27 -11 -54 -25 -54 -27 -57 -24 -41
33 12 39 4 40 -71 12 -29 -11 -54 -20 -55 -20 -2 0 -3 9 -3 20 0 23 -10 24
-65 4z m412 -388 c-15 -146 -149 -273 -322 -305 -32 -6 -61 -11 -64 -12 -23
-3 44 -18 82 -18 l48 -1 -18 -31 c-27 -47 -106 -114 -151 -127 -53 -16 -98
-15 -161 4 l-53 15 41 35 c23 20 41 40 41 45 0 5 -18 9 -39 9 -45 0 -62 15
-27 24 12 3 63 46 113 95 85 84 88 90 68 99 -79 36 -188 18 -268 -43 -54 -41
-58 -35 -32 51 37 124 115 190 238 200 49 4 86 -1 177 -24 63 -16 134 -33 158
-36 59 -9 116 8 144 44 13 16 25 29 27 29 2 1 1 -23 -2 -53z"/>
<path d="M1775 1396 c-88 -39 -106 -150 -34 -210 24 -20 42 -26 79 -26 142 0
171 188 37 239 -36 14 -45 13 -82 -3z"/>
<path d="M1021 1379 c-77 -31 -116 -92 -127 -198 -7 -59 -8 -61 -35 -61 l-29
0 0 -90 0 -90 30 0 30 0 0 -280 0 -280 110 0 110 0 0 280 0 280 50 0 50 0 0
90 0 90 -50 0 c-47 0 -50 2 -50 25 0 14 11 37 25 51 23 23 25 33 25 109 l0 85
-57 -1 c-32 0 -69 -5 -82 -10z"/>
<path d="M2000 865 l0 -485 110 0 109 0 3 255 c3 248 4 255 25 277 30 30 86
30 116 0 21 -22 22 -29 25 -277 l3 -255 109 0 110 0 0 263 c0 205 -3 276 -15
322 -28 107 -85 153 -200 163 -59 4 -81 -2 -167 -46 -5 -2 -8 57 -8 132 l0
136 -110 0 -110 0 0 -485z"/>
<path d="M3490 1180 l0 -60 -35 0 -35 0 0 -90 0 -90 35 0 35 0 0 -212 c0 -186
3 -218 19 -254 35 -78 117 -112 236 -99 l65 7 0 94 0 94 -33 0 c-62 0 -67 16
-67 203 l0 167 50 0 50 0 0 90 0 90 -50 0 -50 0 0 60 0 60 -110 0 -110 0 0
-60z"/>
<path d="M1582 1120 c-18 -4 -41 -15 -51 -24 -23 -21 -31 -20 -31 4 0 19 -7
20 -110 20 l-110 0 0 -370 0 -370 110 0 110 0 0 233 c0 271 1 272 80 283 l50
7 0 113 c0 63 -3 114 -7 113 -5 -1 -23 -5 -41 -9z"/>
<path d="M2940 1121 c-96 -31 -178 -102 -217 -187 -74 -162 -45 -354 69 -466
72 -71 137 -93 273 -93 120 0 173 16 238 71 36 31 77 83 77 98 0 11 -139 96
-157 96 -5 0 -22 -14 -38 -30 -50 -52 -130 -64 -201 -30 -36 18 -74 66 -74 94
0 3 113 6 250 6 l250 0 0 79 c0 161 -65 278 -188 338 -49 24 -70 28 -157 30
-55 1 -111 -1 -125 -6z m180 -186 c30 -15 60 -61 60 -90 0 -13 -19 -15 -130
-15 -111 0 -130 2 -130 15 0 28 30 74 58 89 35 20 105 20 142 1z"/>
<path d="M1710 750 l0 -370 110 0 110 0 0 370 0 370 -110 0 -110 0 0 -370z"/>
</g>
</svg>
