<svg width="38" height="31" viewBox="0 0 38 31" fill="none" xmlns="http://www.w3.org/2000/svg">
<path d="M37.6406 9.11632V24.3826C37.6407 25.9391 37.0452 27.4366 35.9762 28.568C34.9073 29.6994 33.4459 30.3788 31.8919 30.4669L31.5469 30.4763H6.23438C4.67787 30.4764 3.18032 29.8809 2.04894 28.8119C0.917563 27.743 0.238123 26.2816 0.15 24.7276L0.140625 24.3826V9.11632L18.2381 18.5963C18.4395 18.7018 18.6633 18.7569 18.8906 18.7569C19.1179 18.7569 19.3418 18.7018 19.5431 18.5963L37.6406 9.11632ZM6.23438 0.476318H31.5469C33.0573 0.476136 34.514 1.03694 35.6344 2.04994C36.7549 3.06295 37.4591 4.45597 37.6106 5.95882L18.8906 15.7651L0.170625 5.95882C0.315981 4.51565 0.971344 3.17166 2.01891 2.16844C3.06647 1.16521 4.43753 0.568544 5.88563 0.485694L6.23438 0.476318H31.5469H6.23438Z" fill="black"/>
</svg>
