<?xml version="1.0" standalone="no"?>
<!DOCTYPE svg PUBLIC "-//W3C//DTD SVG 20010904//EN"
 "http://www.w3.org/TR/2001/REC-SVG-20010904/DTD/svg10.dtd">
<svg version="1.0" xmlns="http://www.w3.org/2000/svg"
 width="400.000000pt" height="377.000000pt" viewBox="0 0 400.000000 377.000000"
 preserveAspectRatio="xMidYMid meet">

<g transform="translate(0.000000,377.000000) scale(0.100000,-0.100000)"
fill="#000000" stroke="none">
<path d="M2630 3448 c-182 -148 -326 -284 -377 -355 l-29 -41 -27 33 c-14 18
-97 81 -184 139 -243 164 -285 194 -318 225 -16 16 -41 34 -54 41 l-24 12 7
-143 c6 -130 25 -287 42 -343 6 -19 3 -18 -24 7 -16 16 -32 41 -35 56 -4 17
-25 43 -53 66 -45 37 -51 39 -113 39 -42 -1 -84 -8 -117 -22 -49 -20 -51 -20
-62 -1 -7 10 -21 19 -32 19 -12 0 -31 7 -43 15 -31 20 -182 13 -207 -10 -9 -8
-21 -15 -26 -15 -5 -1 -28 -18 -50 -38 -54 -48 -98 -140 -89 -184 10 -43 44
-121 56 -129 6 -3 18 -21 27 -40 17 -34 18 -34 87 -36 39 -1 79 -4 91 -8 14
-4 30 1 50 19 42 35 65 20 35 -22 -14 -20 -21 -45 -21 -75 0 -38 5 -49 31 -71
32 -28 76 -34 110 -15 17 9 27 5 59 -25 21 -19 47 -39 58 -45 18 -9 50 -68 41
-75 -2 -1 -44 -20 -92 -40 -65 -28 -92 -35 -100 -27 -34 34 -161 -9 -229 -79
-34 -36 -93 -142 -90 -164 1 -6 4 -60 6 -121 4 -107 25 -232 47 -287 8 -18 19
-28 33 -28 15 0 28 -13 44 -44 14 -26 35 -49 51 -56 44 -18 101 -93 101 -132
0 -19 -4 -38 -9 -44 -16 -17 -42 -114 -36 -133 4 -13 -6 -38 -30 -74 -26 -38
-44 -87 -66 -173 -33 -128 -39 -213 -30 -459 3 -72 -1 -160 -9 -220 -18 -137
-18 -149 2 -153 20 -4 58 64 83 153 16 54 17 77 6 252 -7 106 -10 196 -7 201
3 5 6 28 7 53 4 82 38 243 70 326 l9 25 41 -46 c28 -31 54 -49 82 -58 23 -6
47 -15 52 -19 24 -17 151 -49 197 -49 27 0 63 -7 81 -16 17 -10 62 -18 102
-20 38 -1 86 -8 105 -14 36 -11 155 -6 265 10 173 25 236 33 240 28 2 -2 18
-85 35 -184 17 -98 44 -235 61 -304 16 -69 38 -161 47 -205 13 -56 23 -81 34
-83 13 -2 17 9 23 57 8 68 1 121 -26 201 -10 30 -25 98 -34 150 -23 140 -64
320 -80 350 -13 25 -12 30 16 63 17 21 39 37 49 37 24 0 188 57 217 76 15 9
25 28 29 53 5 32 11 40 33 44 41 9 121 64 131 93 7 17 6 32 -1 45 -8 16 -7 30
4 58 19 45 7 75 -25 65 l-21 -6 21 35 c29 46 30 97 2 97 -12 0 -34 -7 -50 -15
l-30 -16 0 40 c0 36 3 40 47 62 92 46 138 161 100 252 -9 20 -13 37 -8 37 4 0
32 -4 62 -10 57 -10 340 -40 378 -40 20 0 22 4 17 24 -4 16 8 64 35 138 53
147 57 166 46 211 -12 46 -84 123 -154 164 l-47 28 44 7 c80 14 225 68 301
112 89 52 144 109 159 166 30 112 42 406 16 416 -7 3 -42 -6 -77 -20 -35 -14
-113 -39 -174 -55 -137 -37 -420 -133 -473 -160 l-39 -20 -6 87 c-4 72 -14
112 -56 225 -59 159 -129 297 -151 297 -9 0 -94 -64 -190 -142z m220 -8 c100
-245 121 -309 125 -384 3 -64 -13 -138 -46 -217 -25 -58 -141 -173 -185 -183
-16 -4 -58 -15 -94 -25 -100 -30 -250 -64 -255 -59 -12 12 131 327 209 458
103 174 186 325 186 337 0 43 -60 -25 -179 -202 -140 -209 -233 -404 -284
-593 -6 -23 -16 -41 -21 -39 -13 4 -94 192 -113 262 l-16 60 49 79 c62 101
205 257 344 376 36 30 105 92 155 138 75 69 91 80 96 65 4 -10 16 -43 29 -73z
m-1111 -182 c86 -181 119 -237 190 -317 158 -179 221 -271 221 -327 0 -20 -1
-20 -62 -6 -167 38 -216 74 -279 207 -68 143 -84 199 -113 390 -15 94 -29 179
-33 190 -12 44 11 0 76 -137z m114 12 c48 -38 114 -83 145 -100 43 -23 146
-97 200 -145 1 -1 -14 -30 -34 -64 -40 -67 -41 -86 -10 -183 8 -27 13 -48 11
-48 -2 0 -31 35 -64 78 -34 42 -89 111 -123 153 -36 44 -91 130 -127 200 -35
68 -73 136 -83 152 -11 15 -16 27 -11 27 4 0 48 -32 96 -70z m1897 -257 c-15
-153 -31 -191 -103 -251 -124 -103 -256 -142 -512 -151 -183 -7 -275 1 -275
26 0 17 48 47 98 62 69 20 374 154 456 201 68 39 188 131 295 227 21 18 40 28
45 23 5 -5 4 -62 -4 -137z m-165 77 c-42 -46 -224 -151 -414 -237 -112 -51
-205 -93 -208 -93 -2 0 2 10 8 22 7 13 22 52 33 88 l21 65 95 32 c97 32 458
141 474 142 5 1 1 -8 -9 -19z m-2479 -82 c-3 -13 -6 -42 -6 -65 0 -24 -4 -43
-10 -43 -11 0 -14 88 -4 114 9 25 27 19 20 -6z m526 -71 c61 -95 108 -191 108
-221 0 -22 -64 -115 -90 -131 -15 -9 -12 -35 5 -35 8 0 23 -19 34 -42 11 -24
29 -57 41 -74 l20 -32 -35 -6 c-48 -9 -108 -66 -141 -132 -19 -40 -31 -53 -43
-50 -9 3 -38 10 -66 16 -27 6 -63 20 -80 30 -36 22 -73 60 -58 60 5 0 35 16
67 35 32 19 65 35 73 35 16 0 15 13 -2 82 -5 20 -2 26 15 31 38 10 16 31 -60
57 -44 15 -77 33 -84 45 -18 32 -25 33 -67 12 -34 -16 -44 -18 -69 -7 -36 15
-40 48 -10 75 16 14 24 15 51 6 18 -6 33 -10 33 -9 1 2 8 16 16 31 12 25 12
37 -4 98 -10 39 -16 71 -14 73 33 22 64 37 118 54 87 28 131 45 155 59 11 7
25 12 30 12 6 0 31 -32 57 -72z m206 -265 c58 -56 192 -112 268 -112 39 0 51
-14 55 -62 4 -48 -4 -55 -39 -30 -32 23 -140 51 -206 53 -29 2 -52 -4 -72 -18
-16 -12 -43 -24 -61 -27 -29 -5 -34 -2 -57 36 l-24 40 34 44 c35 47 50 97 40
136 -7 23 -6 23 11 -2 10 -14 33 -40 51 -58z m422 -122 c11 -22 28 -40 36 -40
11 0 14 -5 9 -17 -4 -10 -9 -33 -12 -50 -3 -18 -7 -33 -8 -33 -19 0 -35 18
-39 43 -9 60 -15 137 -11 137 3 0 14 -18 25 -40z m544 24 c20 -8 21 -24 2 -24
-7 0 -40 -13 -72 -29 -32 -16 -73 -34 -90 -41 -17 -6 -46 -26 -63 -44 -39 -40
-50 -113 -28 -191 l13 -50 -57 55 c-47 46 -55 58 -47 73 20 38 214 226 248
241 38 16 69 20 94 10z m-338 -125 c-26 -29 -54 -65 -62 -81 -16 -31 -24 -34
-42 -16 -13 13 -16 86 -4 104 10 16 139 56 151 48 2 -2 -18 -27 -43 -55z m747
23 c52 -19 186 -110 217 -147 10 -13 7 -28 -19 -90 -17 -41 -31 -79 -31 -84 0
-5 -5 -22 -11 -38 l-11 -28 -25 60 c-33 77 -69 129 -130 186 -64 60 -85 70
-223 108 -150 42 -153 43 -105 52 79 14 275 3 338 -19z m-1193 -23 c69 -14
131 -38 148 -58 6 -8 12 -37 12 -64 l0 -49 -37 32 c-41 36 -91 60 -109 53 -7
-3 -28 7 -46 20 -18 14 -49 27 -68 29 -30 3 -35 7 -38 31 -3 27 -3 27 40 22
24 -3 68 -11 98 -16z m-181 -12 c6 -8 8 -17 4 -20 -12 -13 -61 -7 -66 7 -10
25 43 35 62 13z m1071 -44 c173 -58 217 -81 276 -142 48 -49 141 -211 122
-211 -5 0 -80 11 -166 25 -194 31 -439 90 -482 116 -35 22 -55 61 -65 130 -6
40 -4 49 21 79 35 41 78 60 124 53 19 -3 96 -25 170 -50z m-986 -34 c24 -11
22 -13 -57 -61 -134 -81 -287 -215 -287 -250 0 -22 13 -23 30 -3 50 61 360
265 401 265 24 0 49 -44 49 -87 0 -75 -18 -112 -93 -187 -59 -60 -86 -78 -149
-105 -43 -17 -101 -36 -129 -41 -57 -11 -248 -14 -273 -4 -13 5 -3 21 46 73
52 55 73 88 118 190 72 162 87 175 235 210 56 13 80 13 109 0z m366 -103 c0
-96 -20 -74 -26 30 -5 73 -4 78 10 60 11 -14 16 -41 16 -90z m-972 10 c67 -63
100 -82 165 -91 26 -4 47 -9 47 -11 0 -3 -13 -33 -29 -68 -17 -39 -58 -96
-106 -150 -42 -48 -75 -90 -71 -93 3 -4 16 -7 28 -9 13 -1 52 -8 88 -14 158
-29 288 -11 434 62 69 35 76 31 76 -52 0 -30 11 -106 24 -167 13 -62 20 -113
14 -113 -5 0 -44 18 -87 40 -43 22 -83 40 -90 40 -6 0 -34 11 -61 25 -27 14
-59 25 -70 25 -26 0 -55 15 -93 46 -35 30 -47 30 -47 2 0 -12 17 -37 39 -58
31 -29 61 -44 142 -70 57 -17 156 -54 219 -82 63 -28 133 -54 155 -58 102 -19
102 -19 82 -160 -12 -75 -15 -85 -34 -85 -11 -1 -28 -7 -37 -14 -13 -11 -19
-11 -31 -1 -9 7 -25 10 -40 6 -14 -4 -31 -3 -38 1 -11 7 -36 9 -167 16 -25 1
-57 10 -71 20 -14 9 -33 15 -41 12 -8 -3 -31 6 -52 20 -23 16 -45 23 -56 20
-13 -4 -24 2 -36 20 -12 18 -25 25 -49 25 -18 0 -38 7 -45 15 -7 8 -21 15 -32
15 -11 0 -27 15 -40 36 -15 25 -26 34 -39 31 -10 -3 -27 5 -40 19 -12 13 -30
24 -38 24 -20 1 -103 86 -118 122 -8 18 -21 28 -40 30 -23 2 -33 13 -54 58
-18 38 -33 56 -50 60 -27 7 -33 30 -45 175 -9 119 -6 192 11 224 34 65 175
161 237 161 22 0 44 -14 86 -54z m1039 12 c-3 -8 -6 -5 -6 6 -1 11 2 17 5 13
3 -3 4 -12 1 -19z m-210 -32 c26 -24 45 -47 41 -51 -3 -4 -24 -9 -45 -12 l-38
-5 -11 56 c-5 31 -7 56 -3 56 4 0 29 -20 56 -44z m342 -37 l24 -19 -62 0 -62
0 16 30 c14 27 18 29 38 19 12 -7 33 -20 46 -30z m191 -122 c62 -28 65 -26
-65 -46 -80 -12 -189 -53 -222 -84 -32 -29 -31 -75 3 -87 14 -6 40 -10 57 -10
l32 0 -42 -38 c-50 -44 -61 -73 -37 -97 14 -13 28 -16 61 -11 41 5 43 5 38
-17 -9 -33 16 -50 65 -45 22 2 40 1 40 -3 0 -10 -60 -54 -105 -76 -22 -11 -74
-30 -115 -42 -41 -13 -89 -31 -106 -42 -38 -23 -57 -24 -74 -4 -7 8 -20 15
-30 15 -10 0 -23 6 -29 14 -8 10 -23 13 -47 9 -46 -8 -61 8 -69 70 -3 29 -12
86 -20 127 -7 41 -18 112 -25 157 l-12 82 37 43 c20 24 46 63 57 88 l21 46
186 -4 c102 -2 213 1 246 6 51 7 63 6 80 -9 11 -10 45 -29 75 -42z m190 -69
c33 -39 53 -103 46 -143 -10 -50 -77 -115 -120 -115 -17 0 -62 -7 -101 -16
-116 -26 -124 -26 -75 -2 30 16 46 31 48 46 5 31 -19 37 -70 19 -48 -17 -118
-31 -118 -23 0 3 24 21 53 39 69 45 83 62 67 83 -11 12 -27 14 -90 8 -93 -8
-109 5 -42 34 57 25 199 67 259 77 23 3 47 13 53 20 15 18 65 3 90 -27z m-109
-321 c-1 -4 -1 -24 -1 -45 0 -32 -5 -41 -25 -50 -23 -11 -25 -10 -25 16 0 15
-3 36 -6 48 -4 15 1 23 18 31 24 12 40 12 39 0z m-109 -99 c-7 -7 -12 -25 -12
-41 0 -28 1 -29 43 -22 23 4 66 15 95 25 28 10 52 16 52 13 0 -3 -13 -22 -30
-43 -28 -36 -40 -80 -21 -80 5 0 25 7 45 15 46 19 46 7 0 -33 -40 -35 -43 -68
-6 -66 34 1 27 -8 -30 -40 -45 -25 -69 -30 -173 -38 -66 -5 -133 -13 -150 -19
-65 -23 -143 -38 -199 -39 l-59 0 7 43 c3 23 9 69 12 102 l7 60 118 29 c142
34 199 59 259 114 25 22 47 38 49 36 3 -2 -1 -10 -7 -16z m-1312 -210 c14 -6
37 -23 52 -37 26 -23 75 -46 126 -58 12 -3 32 -18 43 -34 11 -16 28 -29 38
-29 9 0 26 -7 37 -15 10 -8 37 -15 60 -15 22 0 46 -6 53 -12 6 -7 38 -14 69
-14 88 -2 162 -12 176 -23 7 -6 22 -8 34 -4 12 3 29 0 36 -6 12 -10 20 -9 41
5 25 16 28 16 88 -15 36 -18 87 -34 122 -38 l60 -7 -45 -9 c-163 -31 -413 -42
-473 -21 -22 8 -62 14 -89 14 -27 0 -70 9 -96 19 -28 12 -83 22 -134 25 -57 3
-104 12 -134 26 -26 11 -54 20 -63 20 -9 0 -42 20 -74 46 l-58 45 4 50 c2 28
9 55 16 62 6 6 11 23 11 37 0 38 8 41 43 19 18 -10 43 -24 57 -31z m1360 -157
c0 -21 -197 -71 -279 -71 -105 0 -48 24 119 50 36 6 81 14 100 19 48 12 60 13
60 2z"/>
<path d="M1520 2950 c-11 -7 -12 -12 -3 -21 14 -14 46 -4 41 13 -6 16 -20 19
-38 8z"/>
<path d="M1353 2890 c-17 -7 -23 -18 -23 -40 0 -36 15 -38 53 -5 47 42 29 69
-30 45z"/>
<path d="M1610 2853 c0 -25 0 -26 -20 -8 -19 18 -20 17 -20 -3 0 -12 9 -31 21
-43 16 -16 23 -18 35 -8 15 12 18 46 8 73 -10 25 -24 19 -24 -11z"/>
<path d="M1524 2808 c-4 -6 0 -16 9 -23 19 -14 12 -26 -10 -18 -11 4 -14 0
-11 -13 7 -41 68 -23 68 20 0 37 -39 61 -56 34z"/>
<path d="M1424 2776 c8 -33 -9 -34 -41 -4 -30 28 -32 2 -2 -36 39 -49 93 -26
73 32 -13 36 -39 43 -30 8z"/>
<path d="M1533 2673 c-27 -3 -43 -9 -43 -18 0 -27 79 -35 100 -10 11 14 6 37
-8 33 -4 -1 -26 -3 -49 -5z"/>
<path d="M694 2755 c-3 -14 -2 -51 4 -83 l9 -57 2 83 c1 84 -4 102 -15 57z"/>
<path d="M442 2685 c0 -16 3 -39 8 -50 l9 -20 -1 20 c0 11 -4 34 -8 50 l-8 30
0 -30z"/>
<path d="M690 2353 c0 -44 13 -112 21 -108 11 7 2 106 -11 119 -7 7 -10 4 -10
-11z"/>
<path d="M204 1915 c0 -55 1 -76 3 -47 2 29 2 74 0 100 -2 26 -3 2 -3 -53z"/>
<path d="M687 1903 c-14 -13 -7 -348 9 -463 13 -92 16 -223 18 -667 2 -543 4
-588 33 -570 9 6 14 251 17 792 1 292 -2 371 -17 476 -10 69 -19 184 -20 256
-2 98 -6 135 -17 148 -8 10 -13 20 -12 22 6 8 -4 13 -11 6z"/>
<path d="M3306 1871 c-4 -5 -2 -12 3 -15 5 -4 12 -2 15 3 4 5 2 12 -3 15 -5 4
-12 2 -15 -3z"/>
<path d="M3126 1829 c-2 -8 -7 -124 -10 -259 -4 -135 -13 -328 -21 -430 -16
-199 -19 -478 -8 -707 6 -131 8 -143 25 -143 17 0 18 10 14 197 -3 108 -2 201
1 206 3 6 7 58 8 116 1 58 5 147 9 196 4 50 9 113 11 140 13 162 16 528 6 600
-11 78 -26 113 -35 84z"/>
<path d="M510 1771 c0 -11 5 -23 10 -26 6 -3 10 1 10 9 0 9 0 19 1 23 0 4 -4
9 -10 11 -6 2 -11 -5 -11 -17z"/>
<path d="M3317 1594 c-4 -4 -7 -32 -7 -61 0 -70 24 -68 28 2 3 46 -7 73 -21
59z"/>
<path d="M899 1565 c-4 -76 3 -591 11 -785 20 -495 22 -521 37 -536 8 -8 18
-12 23 -9 4 3 8 140 8 304 0 254 -2 299 -14 294 -8 -3 -14 0 -14 6 0 6 7 11
15 11 8 0 15 9 15 20 0 14 -5 18 -17 13 -15 -6 -16 -4 -5 9 14 18 6 178 -9
178 -5 0 -9 7 -9 15 0 8 5 15 11 15 8 0 8 4 0 14 -8 10 -9 15 -1 18 7 2 7 13
-1 36 -8 25 -9 36 0 45 14 14 15 40 1 32 -5 -3 -10 0 -10 9 0 8 5 16 11 18 15
5 -18 249 -38 287 -11 23 -13 24 -14 6z"/>
<path d="M420 1442 c0 -47 4 -73 14 -81 18 -15 26 26 17 93 -10 79 -31 71 -31
-12z"/>
<path d="M569 1490 c-1 -8 -1 -296 0 -639 0 -614 3 -675 31 -631 5 8 10 85 10
170 -1 85 1 286 3 445 2 160 0 335 -5 390 -4 55 -10 129 -12 165 -4 62 -23
132 -27 100z"/>
<path d="M1078 1484 c-11 -10 -10 -94 1 -94 5 0 10 10 13 23 5 30 -5 81 -14
71z"/>
<path d="M3307 1298 c-11 -114 22 -983 38 -1009 9 -14 25 -11 25 6 0 8 5 24
12 34 7 11 8 26 3 37 -5 11 -10 71 -12 134 -1 63 -7 149 -12 190 -5 41 -8 146
-6 233 1 103 -2 157 -9 157 -6 0 -5 5 2 12 15 15 16 55 2 63 -8 5 -8 11 0 20
7 8 7 15 1 19 -5 4 -7 18 -5 32 5 30 -15 134 -26 134 -4 0 -10 -28 -13 -62z"/>
<path d="M181 1252 c-6 -12 -6 -45 0 -93 5 -40 9 -240 9 -444 0 -393 6 -490
29 -490 12 0 14 61 12 400 -3 545 -5 618 -14 633 -11 17 -25 15 -36 -6z"/>
<path d="M2927 1203 c-13 -22 -18 -565 -6 -673 7 -63 13 -145 13 -182 1 -36 4
-69 8 -73 24 -25 28 22 27 353 0 191 1 359 4 375 2 15 1 27 -2 27 -3 0 -7 25
-7 55 -1 30 -3 66 -4 80 -3 26 -25 52 -33 38z"/>
<path d="M406 1158 c-11 -89 -22 -669 -15 -802 7 -126 20 -184 33 -145 11 33
13 128 3 138 -7 7 -7 11 -1 11 6 0 11 16 12 35 1 20 -3 33 -7 30 -5 -3 -4 8 1
23 7 16 8 37 3 48 -10 23 -13 114 -4 114 4 0 7 39 6 88 0 48 2 121 6 162 15
165 17 259 6 265 -6 4 -8 13 -5 21 6 15 -13 54 -26 54 -4 0 -9 -19 -12 -42z"/>
<path d="M3509 1143 c-12 -33 -8 -65 9 -71 8 -2 12 11 12 47 0 57 -6 64 -21
24z"/>
<path d="M2615 987 c-4 -14 -5 -177 -3 -362 4 -276 7 -338 18 -345 19 -12 50
21 45 46 -3 11 -6 154 -8 319 -4 284 -5 302 -25 334 l-21 34 -6 -26z"/>
<path d="M3520 793 c0 -92 -3 -234 -6 -314 -5 -106 -3 -152 6 -169 12 -22 13
-22 23 -5 5 10 11 73 13 139 2 67 5 152 7 189 2 37 0 70 -4 73 -5 2 -3 16 3
29 8 18 8 32 0 52 -6 15 -11 35 -10 43 3 27 -14 120 -23 126 -5 3 -9 -70 -9
-163z"/>
<path d="M2004 708 c-28 -24 -74 -61 -103 -83 -172 -132 -180 -142 -272 -321
-33 -62 -35 -114 -6 -114 27 0 108 112 133 182 14 40 32 60 95 108 l26 19 27
-50 c15 -27 50 -78 78 -112 27 -34 61 -84 74 -110 28 -55 49 -54 39 1 -10 52
-38 105 -111 205 -35 48 -64 90 -64 93 0 3 29 34 64 67 66 65 101 119 92 143
-8 21 -18 18 -72 -28z"/>
<path d="M2797 646 c-11 -28 -8 -374 3 -381 6 -4 10 34 11 107 1 62 3 142 4
178 2 75 -7 125 -18 96z"/>
<path d="M3696 482 c-15 -24 -26 -114 -16 -133 19 -34 28 -20 32 49 5 66 -2
105 -16 84z"/>
</g>
</svg>
