<?xml version="1.0" standalone="no"?>
<!DOCTYPE svg PUBLIC "-//W3C//DTD SVG 20010904//EN"
 "http://www.w3.org/TR/2001/REC-SVG-20010904/DTD/svg10.dtd">
<svg version="1.0" xmlns="http://www.w3.org/2000/svg"
 width="400.000000pt" height="260.000000pt" viewBox="0 0 400.000000 260.000000"
 preserveAspectRatio="xMidYMid meet">

<g transform="translate(0.000000,260.000000) scale(0.100000,-0.100000)"
fill="#000000" stroke="none">
<path d="M955 2429 c-125 -15 -231 -74 -267 -147 -18 -38 -20 -56 -15 -130 3
-48 8 -94 12 -104 6 -14 0 -16 -54 -11 -178 16 -308 -108 -266 -253 8 -28 22
-57 30 -64 36 -30 11 -57 -68 -76 -87 -20 -78 -180 13 -257 34 -29 86 -43 126
-33 39 10 64 -17 64 -69 0 -33 -5 -46 -23 -58 -12 -8 -35 -37 -50 -64 -57
-106 -245 -741 -254 -859 -7 -83 0 -112 21 -95 14 12 679 29 1261 32 193 1
380 2 416 3 40 1 76 -5 93 -13 34 -18 41 -10 27 31 -17 52 -121 159 -211 218
l-82 54 104 101 c102 100 281 311 351 413 19 29 39 48 42 42 3 -6 15 -42 26
-81 43 -155 106 -241 267 -362 168 -126 231 -206 248 -314 6 -42 6 -43 -23
-43 -16 0 -38 -6 -49 -14 -18 -14 -18 -15 6 -24 34 -13 1041 -26 1059 -13 30
20 -2 31 -91 31 -68 0 -89 3 -85 13 53 129 67 176 78 254 11 81 11 107 -5 210
-27 183 -36 213 -63 219 -16 4 -22 12 -19 23 19 59 38 224 46 387 8 144 16
215 34 285 28 112 86 258 122 311 15 21 24 44 20 53 -5 14 -11 13 -48 -9 -80
-47 -107 -76 -142 -149 -35 -73 -89 -286 -126 -497 -10 -58 -23 -123 -28 -145
l-10 -40 -1 39 c-1 45 -15 168 -38 341 -12 95 -14 168 -9 350 6 209 1 273 -18
254 -3 -3 -17 -48 -30 -100 -14 -52 -37 -123 -52 -159 -36 -87 -52 -301 -36
-469 6 -63 10 -116 8 -118 -7 -7 -108 426 -127 545 -11 68 -19 171 -20 247 -1
135 -7 176 -26 182 -7 3 -12 -49 -16 -169 -3 -95 -10 -231 -17 -303 -14 -150
-2 -373 31 -538 28 -147 26 -151 -32 -66 -28 41 -95 119 -148 174 -110 114
-148 161 -182 225 -32 63 -35 32 -9 -82 30 -129 39 -155 73 -223 51 -104 128
-204 218 -286 l87 -80 -11 -37 c-12 -43 -16 -364 -4 -405 10 -36 -11 -36 -81
-1 -58 29 -92 65 -92 100 0 14 -63 110 -157 241 -181 253 -224 318 -282 431
-24 45 -56 93 -72 107 -59 49 -138 43 -280 -20 -42 -19 -80 -35 -83 -35 -4 0
1 11 12 24 10 14 47 104 82 200 60 167 62 177 46 195 -9 10 -30 21 -45 24 -17
4 -31 14 -33 25 -8 28 -115 77 -134 61 -8 -6 -14 -19 -14 -28 0 -9 -4 -21 -9
-27 -16 -15 -67 -164 -85 -247 -15 -65 -25 -86 -59 -126 -23 -26 -57 -69 -75
-95 -27 -40 -47 -54 -119 -88 -74 -35 -88 -39 -108 -28 -20 10 -43 7 -147 -20
-67 -18 -137 -35 -154 -37 l-32 -5 -1 75 c-1 94 -28 182 -71 235 l-32 41 21
27 c39 49 21 143 -44 228 -14 18 -25 35 -25 37 0 3 31 3 70 1 97 -6 113 0 135
48 11 23 24 39 31 36 6 -2 21 2 33 10 18 13 21 25 21 83 0 63 2 70 26 86 34
22 54 73 54 138 0 43 -6 62 -28 93 -48 66 -95 94 -190 115 -110 24 -134 26
-207 18z m63 -294 c36 -30 65 -31 187 -6 50 10 92 17 94 15 2 -2 -1 -21 -7
-43 -7 -21 -12 -66 -12 -100 0 -56 -2 -62 -24 -71 -14 -5 -33 -21 -42 -35 -13
-19 -23 -25 -39 -21 -27 7 -38 -3 -24 -21 13 -15 -11 -17 -109 -7 l-61 7 6 62
c6 62 5 63 -31 99 -40 41 -48 85 -20 124 20 29 45 28 82 -3z m2336 -312 c-5
-105 -3 -161 9 -233 15 -88 38 -327 52 -531 l6 -87 -43 -4 c-29 -4 -47 -1 -54
8 -19 24 -27 159 -28 494 l-1 325 30 83 c16 45 31 82 32 82 2 0 0 -62 -3 -137z
m310 6 c-60 -155 -74 -227 -84 -422 -10 -184 -10 -192 -37 -344 l-17 -93 -38
0 -38 0 0 55 c0 31 11 102 25 158 14 56 48 210 76 342 34 162 60 261 80 305
29 61 58 104 66 97 2 -2 -13 -46 -33 -98z m-539 -89 c13 -66 33 -153 44 -193
22 -80 97 -453 107 -533 l6 -51 -62 -6 c-82 -9 -110 -9 -108 1 6 21 -21 56
-107 135 -66 62 -110 112 -145 170 -47 77 -116 234 -107 244 3 2 24 -20 48
-49 24 -29 82 -93 129 -143 84 -88 143 -170 211 -290 40 -70 52 -54 21 28 -18
48 -41 183 -62 377 -10 85 -13 446 -4 438 3 -4 16 -61 29 -128z m-2228 31
c-23 -40 -24 -41 -41 -22 -10 11 -15 25 -11 31 6 10 67 40 73 35 1 -1 -8 -21
-21 -44z m-61 -47 c32 -40 66 -110 116 -239 62 -159 208 -395 227 -367 6 7
251 62 279 62 8 0 12 -20 12 -68 0 -39 -5 -75 -12 -84 -32 -40 -325 -148 -402
-148 -14 0 -40 13 -58 29 -33 29 -159 209 -214 306 -19 33 -29 44 -32 33 -4
-21 33 -94 105 -205 115 -179 149 -213 219 -213 67 0 234 61 306 111 14 11 31
19 36 19 6 0 16 -26 22 -57 42 -213 108 -306 313 -444 110 -74 197 -144 197
-159 0 -5 -315 -4 -760 3 -149 2 -185 5 -246 24 -77 25 -124 60 -124 93 0 12
-9 29 -20 38 -18 16 -70 134 -85 193 -5 22 -3 26 17 25 14 -1 24 6 26 18 3 16
-1 18 -27 14 -29 -4 -31 -3 -50 61 -51 169 -81 389 -81 582 1 141 17 298 35
342 9 21 21 22 29 2 3 -8 12 -15 21 -15 17 0 21 25 5 35 -29 18 28 45 84 41
28 -2 44 -11 62 -32z m1256 -1 c33 -9 57 -21 54 -27 -9 -21 -108 -261 -126
-306 l-18 -45 -79 3 c-43 2 -82 8 -87 12 -11 11 -2 43 66 238 l53 154 39 -6
c21 -4 65 -14 98 -23z m-1069 -230 c41 -56 78 -111 81 -121 13 -41 33 -162 27
-162 -9 0 -115 194 -147 270 -15 36 -33 81 -41 100 -19 45 -11 37 80 -87z
m785 -141 c-3 -43 8 -52 70 -53 109 -1 104 -9 -55 -86 -81 -40 -164 -79 -183
-87 -19 -8 -59 -28 -87 -45 l-53 -31 0 54 c0 31 5 58 13 63 6 5 48 24 92 42
88 34 118 57 165 126 17 25 33 45 36 45 2 0 3 -13 2 -28z m545 4 c48 -20 83
-63 114 -141 36 -88 127 -233 241 -383 49 -64 102 -137 117 -161 l29 -43 -29
-25 c-17 -13 -44 -36 -62 -50 l-32 -25 -53 52 c-29 29 -103 89 -164 135 -61
46 -125 100 -143 121 -43 53 -89 148 -101 211 -11 59 -28 93 -48 93 -7 0 -25
-15 -40 -32 -15 -18 -52 -60 -83 -93 -30 -33 -78 -89 -105 -125 -64 -85 -282
-324 -298 -328 -19 -4 -123 94 -152 143 -42 72 -105 257 -92 272 5 7 14 10 19
8 4 -3 17 3 29 15 11 11 26 20 34 20 7 0 56 19 107 43 52 24 119 54 149 68 30
13 79 42 110 65 30 22 76 52 101 67 73 43 239 100 307 106 7 1 27 -5 45 -13z
m-1799 -286 c19 -115 105 -436 138 -511 52 -119 99 -198 135 -228 20 -17 35
-32 32 -34 -2 -2 -125 -9 -274 -15 -148 -6 -287 -16 -308 -22 -22 -6 -41 -10
-43 -8 -2 3 1 18 7 34 5 16 44 142 85 279 42 138 92 306 113 375 35 113 87
238 96 228 2 -2 11 -46 19 -98z m3032 -148 c6 -4 20 -73 30 -154 18 -145 18
-147 -3 -253 -23 -114 -62 -207 -96 -230 -15 -9 -36 -12 -64 -8 -37 5 -44 10
-54 40 -10 31 -22 40 -104 79 -51 24 -99 44 -107 44 -8 0 -27 14 -44 31 l-29
30 0 205 0 205 205 5 c113 3 207 7 209 10 7 7 45 4 57 -4z m-689 -381 c31 -66
74 -93 244 -150 133 -44 209 -75 209 -86 0 -2 -122 -3 -270 -2 l-270 1 -11 41
c-5 22 -16 61 -24 87 -8 26 -15 53 -14 60 0 11 95 95 109 97 3 1 15 -21 27
-48z"/>
<path d="M947 2110 c-8 -38 1 -62 22 -58 18 4 25 29 17 64 -9 33 -32 30 -39
-6z"/>
<path d="M1192 2088 c-21 -21 -13 -28 28 -28 28 0 40 4 40 14 0 25 -47 35 -68
14z"/>
<path d="M1210 2015 c0 -28 15 -34 24 -9 10 25 7 34 -9 34 -9 0 -15 -9 -15
-25z"/>
<path d="M807 1654 c-16 -16 -6 -35 16 -32 12 2 22 10 22 18 0 16 -26 25 -38
14z"/>
<path d="M710 1555 c0 -17 46 -42 57 -31 12 11 -12 41 -36 44 -14 2 -21 -2
-21 -13z"/>
<path d="M816 1414 c-20 -19 -20 -33 -1 -40 20 -8 45 13 45 37 0 23 -23 25
-44 3z"/>
<path d="M650 1392 c0 -13 39 -46 46 -39 9 9 -16 47 -31 47 -8 0 -15 -4 -15
-8z"/>
<path d="M931 1311 c-19 -12 -4 -31 25 -31 27 0 33 24 8 34 -19 7 -16 8 -33
-3z"/>
<path d="M947 1203 c-4 -3 -7 -15 -7 -25 0 -28 34 -19 38 10 3 21 -16 31 -31
15z"/>
<path d="M635 1170 c-4 -7 -3 -16 3 -22 14 -14 65 -1 59 15 -5 16 -53 21 -62
7z"/>
<path d="M1350 1061 c0 -22 16 -36 24 -22 8 12 -3 41 -15 41 -5 0 -9 -9 -9
-19z"/>
<path d="M700 1061 c0 -28 14 -41 46 -41 42 0 44 14 4 35 -33 17 -50 19 -50 6z"/>
<path d="M1100 1051 c0 -21 13 -41 26 -41 17 0 17 5 4 31 -11 20 -30 26 -30
10z"/>
<path d="M977 1027 c-7 -18 8 -41 21 -33 11 7 4 46 -8 46 -4 0 -10 -6 -13 -13z"/>
<path d="M740 875 c-10 -12 -10 -19 -2 -27 13 -13 42 6 42 28 0 19 -24 18 -40
-1z"/>
<path d="M1397 834 c-15 -15 -7 -45 11 -42 9 2 17 12 17 22 0 20 -16 31 -28
20z"/>
<path d="M865 790 c-4 -7 -3 -16 2 -21 12 -12 75 1 70 15 -5 15 -63 20 -72 6z"/>
<path d="M1224 758 c-9 -15 27 -41 40 -28 6 6 5 15 -4 25 -15 18 -26 19 -36 3z"/>
<path d="M1000 701 c0 -20 25 -51 40 -51 19 0 19 19 -1 44 -24 31 -39 33 -39
7z"/>
<path d="M867 642 c-20 -22 -23 -66 -4 -60 21 7 43 56 31 68 -7 7 -15 5 -27
-8z"/>
<path d="M1296 641 c-18 -20 -21 -47 -6 -56 16 -10 40 14 40 41 0 31 -14 37
-34 15z"/>
<path d="M1160 631 c-10 -20 -4 -51 11 -51 13 0 31 40 25 56 -8 20 -23 17 -36
-5z"/>
<path d="M1440 595 c0 -19 24 -29 46 -21 13 5 14 9 4 21 -16 20 -50 19 -50 0z"/>
<path d="M1024 525 c-4 -9 -4 -18 -1 -21 10 -10 48 7 44 19 -6 19 -36 20 -43
2z"/>
<path d="M1320 496 c0 -8 5 -18 10 -21 6 -3 10 3 10 14 0 12 -4 21 -10 21 -5
0 -10 -6 -10 -14z"/>
<path d="M1520 441 c0 -17 5 -31 10 -31 6 0 10 11 10 24 0 14 -4 28 -10 31 -6
4 -10 -7 -10 -24z"/>
<path d="M1220 439 c0 -17 20 -49 30 -49 14 0 12 34 -2 48 -15 15 -28 15 -28
1z"/>
<path d="M970 380 c0 -18 26 -40 49 -40 20 0 11 28 -14 44 -31 21 -35 20 -35
-4z"/>
<path d="M1431 372 c-8 -15 -7 -23 3 -31 11 -10 16 -8 21 9 10 30 -10 48 -24
22z"/>
<path d="M1752 374 c4 -20 34 -41 45 -31 10 11 -11 41 -31 45 -12 3 -17 -2
-14 -14z"/>
<path d="M3157 804 c-9 -9 -9 -58 0 -67 8 -9 33 12 33 27 0 18 -25 48 -33 40z"/>
<path d="M3227 804 c-4 -4 -7 -20 -7 -36 0 -35 23 -34 28 1 4 25 -10 46 -21
35z"/>
<path d="M3307 804 c-10 -11 -9 -52 3 -59 6 -3 13 1 16 10 8 19 -8 60 -19 49z"/>
<path d="M3384 796 c-9 -23 0 -51 16 -51 10 0 15 10 15 29 0 32 -21 47 -31 22z"/>
<path d="M3455 791 c-8 -26 13 -67 27 -53 13 13 6 64 -9 69 -6 2 -14 -5 -18
-16z"/>
<path d="M3560 765 c0 -8 5 -15 10 -15 6 0 10 7 10 15 0 8 -4 15 -10 15 -5 0
-10 -7 -10 -15z"/>
<path d="M3405 680 c-33 -4 -101 -8 -152 -9 -50 -1 -94 -5 -97 -10 -9 -14 144
-22 224 -11 41 5 96 13 123 16 26 4 47 11 47 15 0 10 -57 9 -145 -1z"/>
<path d="M2806 472 c-3 -6 -1 -14 5 -17 15 -10 25 3 12 16 -7 7 -13 7 -17 1z"/>
<path d="M2258 481 c-82 -4 -132 -10 -140 -18 -6 -7 -27 -13 -44 -13 -38 0
-64 -29 -64 -72 0 -34 26 -49 71 -42 32 6 35 4 48 -31 16 -44 57 -65 128 -65
71 0 108 27 127 91 16 54 22 160 9 157 -5 -1 -65 -4 -135 -7z m122 -53 c0 -39
-20 -98 -41 -119 -14 -14 -33 -19 -68 -19 -91 0 -116 20 -127 104 l-7 45 69 4
c179 9 174 9 174 -15z m-270 -28 c0 -15 -7 -20 -29 -20 -42 0 -48 18 -9 29 18
5 34 10 36 10 1 1 2 -8 2 -19z"/>
</g>
</svg>
