<?xml version="1.0" standalone="no"?>
<!DOCTYPE svg PUBLIC "-//W3C//DTD SVG 20010904//EN"
 "http://www.w3.org/TR/2001/REC-SVG-20010904/DTD/svg10.dtd">
<svg version="1.0" xmlns="http://www.w3.org/2000/svg"
 width="400.000000pt" height="326.000000pt" viewBox="0 0 400.000000 326.000000"
 preserveAspectRatio="xMidYMid meet">

<g transform="translate(0.000000,326.000000) scale(0.100000,-0.100000)"
fill="#000000" stroke="none">
<path d="M2255 3052 c-16 -10 -33 -21 -36 -25 -9 -12 0 -97 12 -122 12 -25 -4
-75 -25 -75 -7 0 -19 -7 -26 -15 -11 -13 -9 -20 13 -43 24 -25 27 -36 27 -95
0 -79 12 -90 92 -86 37 2 52 -1 59 -13 7 -12 -1 -20 -41 -37 -27 -11 -62 -21
-79 -21 -42 0 -102 -56 -152 -142 -22 -38 -47 -72 -55 -75 -8 -3 -14 -11 -14
-19 0 -7 -18 -27 -40 -45 -54 -44 -146 -154 -175 -210 -31 -60 -40 -111 -25
-139 11 -21 17 -22 71 -16 32 3 59 3 59 0 0 -3 -7 -18 -15 -35 -16 -30 -13
-49 8 -50 7 0 39 -11 72 -25 80 -32 40 -25 -130 26 -243 72 -508 140 -548 140
-83 0 -129 -20 -192 -84 -111 -113 -253 -275 -322 -368 -91 -122 -207 -317
-205 -344 3 -35 -87 -88 -261 -154 -151 -57 -186 -117 -110 -186 20 -19 41
-34 46 -34 6 0 53 14 106 31 53 17 137 35 186 41 118 13 150 28 169 81 8 23
17 59 21 79 3 21 11 41 18 45 7 5 34 40 60 80 34 52 85 105 180 188 72 64 133
113 134 108 1 -4 18 -66 36 -138 85 -329 203 -657 251 -701 13 -12 26 -38 29
-61 l7 -42 -77 -54 c-43 -29 -108 -70 -145 -90 -87 -48 -136 -110 -95 -121 97
-27 111 -27 172 -3 63 25 149 49 249 68 110 21 137 75 95 189 -11 30 -25 89
-29 132 -5 42 -19 121 -31 175 -11 54 -29 161 -40 238 -10 77 -21 148 -23 158
-5 19 -4 19 74 -8 l35 -12 16 -169 c20 -209 62 -467 94 -576 23 -78 43 -108
71 -108 20 0 45 31 40 49 -3 9 -13 86 -22 171 -18 170 -24 457 -11 563 l9 67
116 0 c64 0 148 5 186 10 38 6 70 9 71 8 1 -2 -3 -52 -9 -113 -11 -121 3 -314
24 -340 18 -22 39 -18 44 8 17 94 57 368 56 392 0 61 9 72 73 95 34 12 72 28
85 36 21 14 22 13 22 -13 0 -16 -7 -73 -15 -128 -17 -115 -19 -429 -5 -577 10
-108 36 -172 72 -183 41 -14 44 9 51 302 7 296 14 379 52 648 23 162 108 632
123 685 9 30 27 29 127 -8 88 -32 214 -41 269 -18 36 15 36 16 36 74 0 77 -22
137 -71 197 -23 28 -55 70 -72 95 -38 56 -196 246 -232 280 -38 35 -124 33
-218 -5 -37 -15 -69 -26 -71 -24 -2 2 -6 21 -10 41 l-7 38 31 -18 31 -17 27
33 c15 18 32 32 39 32 18 0 43 41 43 72 0 30 -9 35 -27 17 -8 -8 -16 -6 -30 8
-15 15 -17 25 -10 47 12 36 1 89 -23 111 -11 10 -20 23 -20 30 0 20 -65 83
-104 99 -53 22 -200 20 -241 -2z m98 -146 c16 -10 27 -25 27 -39 0 -45 14 -53
59 -33 23 11 48 16 58 12 16 -7 15 -10 -9 -31 -15 -12 -33 -25 -40 -27 -9 -3
-2 -14 20 -32 26 -23 32 -35 32 -67 0 -22 9 -67 20 -100 l21 -61 -26 -43 c-39
-67 -88 -115 -118 -115 -14 0 -29 5 -32 11 -13 19 6 127 26 150 19 22 19 31
-2 87 -8 20 -14 23 -39 17 -49 -11 -110 3 -110 25 0 13 9 20 27 22 14 2 28 9
31 17 3 10 -3 11 -27 6 -29 -6 -31 -5 -31 23 0 16 -7 35 -15 42 -20 17 -19 27
3 33 11 2 22 17 25 36 7 35 21 38 72 17 19 -8 35 -11 35 -6 0 15 -52 50 -75
50 -18 0 -21 4 -17 30 l4 29 27 -18 c14 -10 38 -26 54 -35z m475 -363 c43 -38
132 -147 125 -153 -4 -4 -27 -12 -50 -19 -24 -6 -50 -22 -60 -35 -15 -19 -21
-21 -45 -12 -36 13 -62 -10 -84 -76 -13 -41 -18 -47 -31 -36 -11 9 -14 29 -12
77 3 92 3 91 -36 91 -33 0 -136 -42 -177 -72 -35 -26 -29 3 9 45 45 49 88 119
97 159 5 23 13 28 58 36 92 17 183 14 206 -5z m-503 -123 l0 -69 -37 5 c-83
14 -108 -16 -108 -128 0 -53 -2 -59 -26 -70 -14 -7 -34 -29 -45 -50 -24 -46
-33 -50 -15 -5 8 17 12 46 9 63 -4 23 5 50 31 100 27 49 33 71 25 78 -8 8 -15
5 -25 -9 -32 -48 -43 -60 -49 -53 -6 6 48 89 89 137 22 25 110 71 136 71 12 0
15 -14 15 -70z m747 -173 c84 -112 118 -180 118 -233 l0 -34 -75 0 c-62 0 -91
6 -163 34 -96 37 -133 45 -237 50 -56 3 -118 20 -154 43 -2 1 4 9 13 18 20 21
12 35 -20 35 -34 0 -22 16 17 24 32 6 32 6 13 28 -18 20 -18 21 -1 15 10 -4
26 -7 34 -7 9 0 38 -22 65 -50 l49 -50 145 0 c85 0 144 4 144 10 0 5 -30 24
-66 42 -87 43 -116 71 -112 106 3 24 11 30 68 49 36 12 70 22 75 22 6 1 45
-45 87 -102z m-442 46 l0 -38 -55 3 c-34 3 -61 -1 -70 -8 -18 -15 -20 -50 -3
-50 6 0 1 -11 -11 -24 -18 -19 -21 -29 -13 -42 7 -12 6 -23 -1 -35 -9 -14 -6
-22 13 -42 13 -14 31 -23 39 -20 9 2 3 -6 -14 -18 -16 -13 -43 -38 -60 -55
l-30 -32 -57 25 c-43 19 -58 31 -63 51 -4 16 -2 28 4 30 20 7 11 41 -14 55
l-26 13 36 17 c19 9 35 21 35 27 0 18 -48 42 -72 35 -66 -19 -62 -22 -55 34 3
28 9 56 12 61 8 13 67 11 130 -4 l50 -11 -4 -113 c-3 -96 -1 -112 12 -112 16
0 22 20 32 110 12 109 11 108 83 145 89 45 102 45 102 -2z m162 -74 c-3 -50
-1 -46 -27 -51 -27 -4 -31 30 -10 72 22 43 41 33 37 -21z m-717 -24 c-4 -90
-28 -125 -96 -145 -72 -21 -80 -45 -13 -37 27 3 69 12 92 20 37 13 44 13 49 1
9 -25 -6 -45 -51 -65 -56 -24 -233 -65 -243 -55 -15 14 50 115 129 202 44 49
90 101 101 117 11 15 24 27 28 27 4 0 5 -29 4 -65z m790 -5 c18 -20 17 -20 -8
-20 -20 0 -27 5 -27 20 0 11 4 20 8 20 5 0 17 -9 27 -20z m-618 -52 c-55 -24
-61 -51 -12 -56 52 -6 53 -22 2 -22 -68 0 -63 -38 6 -41 12 0 16 -3 10 -6 -18
-7 -16 -30 3 -37 9 -4 14 -9 11 -12 -11 -11 -117 27 -127 46 -36 68 36 147
135 148 11 0 -2 -9 -28 -20z m412 -145 c-14 -38 -64 -270 -89 -415 -27 -158
-26 -155 -48 -136 -26 24 -79 48 -103 48 -19 0 -21 4 -15 33 3 17 28 64 56
103 64 92 153 263 176 337 10 31 21 57 26 57 4 0 3 -12 -3 -27z m97 13 c1 0
-11 -53 -27 -116 -36 -146 -90 -473 -123 -750 -32 -271 -37 -351 -38 -578 0
-100 -4 -185 -9 -188 -5 -3 -9 0 -9 7 0 7 -7 20 -16 30 -20 22 -26 108 -26
369 0 121 6 221 16 290 50 320 91 545 121 667 18 76 39 165 45 198 16 86 17
87 42 79 13 -3 24 -7 24 -8z m-168 -48 c-14 -24 -55 -98 -93 -165 -37 -68 -69
-123 -71 -123 -3 0 -28 12 -57 26 -107 55 -291 104 -388 104 -32 0 -59 4 -59
9 0 5 28 34 63 65 73 66 101 74 207 58 49 -7 81 -7 93 0 14 7 33 2 79 -22 60
-31 60 -32 82 -12 26 24 148 102 159 102 5 0 -2 -19 -15 -42z m-1178 -482
c151 -70 244 -90 530 -117 189 -18 290 -15 338 10 22 11 44 26 47 31 4 6 18
15 31 20 13 5 24 16 24 25 0 21 10 19 61 -13 112 -72 109 -122 -10 -176 -80
-36 -203 -56 -387 -63 -183 -7 -244 0 -244 28 0 10 -4 19 -10 19 -5 0 -10 -9
-10 -20 0 -18 -6 -20 -77 -19 -43 0 -100 6 -127 12 l-50 12 -38 100 c-22 55
-45 106 -52 113 -6 7 -43 28 -82 46 -102 51 -57 43 56 -8z m897 -323 c-3 -10
-15 -64 -28 -120 -13 -57 -28 -103 -33 -103 -9 0 0 215 10 231 3 5 16 9 30 9
19 0 24 -4 21 -17z m-514 -70 c-14 -104 -7 -479 11 -607 18 -122 17 -159 -2
-84 -16 62 -69 391 -77 473 -4 39 -15 115 -26 170 -10 55 -19 101 -19 103 0 1
27 2 60 2 l60 0 -7 -57z m-1103 -6 c19 -11 36 -21 38 -23 7 -4 -31 -120 -45
-136 -17 -19 -35 -23 -195 -42 -67 -9 -138 -24 -164 -36 -26 -11 -54 -20 -63
-20 -24 1 -62 33 -53 47 4 6 56 30 115 52 191 73 253 112 272 172 8 23 40 18
95 -14z m924 -597 c48 -144 46 -148 -91 -166 -55 -7 -135 -24 -177 -38 -113
-38 -184 -32 -98 8 31 15 87 47 230 133 26 16 30 67 8 99 -14 20 -13 20 47 20
l63 -1 18 -55z"/>
<path d="M2270 2836 c0 -14 5 -26 10 -26 6 0 10 9 10 19 0 11 -4 23 -10 26 -6
4 -10 -5 -10 -19z"/>
<path d="M2420 1390 c-11 -7 -12 -12 -3 -21 14 -14 53 -2 53 17 0 16 -28 18
-50 4z"/>
<path d="M1727 1354 c-8 -8 3 -34 14 -34 5 0 9 9 9 20 0 19 -11 26 -23 14z"/>
<path d="M1550 1329 c-7 -11 -9 -23 -6 -26 8 -9 36 17 36 33 0 21 -18 17 -30
-7z"/>
<path d="M2360 1310 c0 -19 11 -26 23 -14 8 8 -3 34 -14 34 -5 0 -9 -9 -9 -20z"/>
<path d="M1656 1311 c-12 -18 2 -61 19 -61 19 0 19 30 2 55 -10 13 -16 15 -21
6z"/>
<path d="M1840 1308 c0 -18 27 -44 37 -34 4 4 -3 16 -15 29 -18 17 -22 18 -22
5z"/>
<path d="M2025 1300 c-17 -19 -17 -20 0 -26 19 -8 49 22 39 37 -8 14 -19 11
-39 -11z"/>
<path d="M2282 1286 c1 -10 8 -17 13 -17 15 1 12 24 -3 29 -9 3 -13 -2 -10
-12z"/>
<path d="M2132 1266 c2 -16 9 -31 16 -34 17 -5 15 20 -3 44 -15 18 -15 18 -13
-10z"/>
<path d="M1985 1261 c-8 -14 13 -53 26 -46 13 9 11 31 -5 44 -10 8 -16 9 -21
2z"/>
<path d="M2908 1131 c-65 -7 -75 -14 -80 -56 -2 -23 -11 -34 -40 -48 -37 -17
-49 -39 -27 -53 6 -3 8 -16 5 -27 -3 -12 -1 -27 5 -33 7 -9 7 -19 -1 -35 -7
-11 -10 -35 -7 -53 3 -20 -1 -37 -11 -49 -21 -24 -10 -30 35 -18 26 7 50 7 75
1 56 -16 162 -16 280 -1 106 13 138 11 138 -9 0 -6 -28 -10 -68 -10 -96 0
-230 -18 -264 -36 -27 -14 -29 -20 -26 -57 4 -51 -7 -55 -86 -32 -52 15 -56
19 -56 46 l0 30 65 -7 c81 -8 88 8 13 31 -59 17 -124 20 -133 5 -4 -6 2 -25
13 -43 17 -28 18 -36 6 -63 -7 -17 -19 -34 -27 -37 -9 -3 -13 -14 -10 -30 3
-14 0 -28 -6 -31 -6 -4 -11 -18 -11 -30 0 -27 15 -35 139 -67 113 -30 249 -23
558 27 46 7 63 28 63 78 0 44 -25 78 -76 104 -15 8 -23 24 -27 53 -3 22 -15
51 -26 63 -28 30 -26 36 8 36 27 0 61 21 61 38 0 4 -5 24 -11 45 -15 55 -37
60 -192 47 -70 -7 -142 -16 -160 -21 -17 -5 -39 -9 -47 -9 -13 1 -13 2 0 9 22
12 130 30 254 41 60 5 111 12 114 15 3 3 -2 11 -11 18 -8 6 -17 25 -19 41 -3
25 2 31 29 40 48 17 61 33 41 52 -13 13 -41 18 -120 21 -57 2 -141 8 -188 13
-47 5 -92 9 -100 8 -8 0 -41 -4 -72 -7z m266 -41 c14 -5 26 -16 26 -24 0 -11
-14 -13 -62 -10 -35 2 -116 7 -180 10 -92 5 -118 9 -118 20 0 11 29 14 154 14
85 0 166 -4 180 -10z m172 -9 c-3 -4 -28 -11 -56 -15 -67 -9 -65 -9 -68 8 -3
13 8 16 63 16 36 0 64 -4 61 -9z m-267 -55 c-2 -2 -42 -6 -89 -9 -56 -4 -80
-3 -70 3 14 9 169 15 159 6z m209 -28 c27 -27 11 -35 -80 -41 -51 -4 -126 -15
-165 -25 -65 -16 -73 -17 -73 -3 0 9 -3 26 -6 39 -6 21 -4 22 57 23 35 0 87 4
114 9 78 12 140 11 153 -2z m-378 -28 c23 -12 43 -47 35 -60 -3 -5 -17 -3 -32
5 -15 8 -50 17 -79 21 -49 6 -52 8 -41 25 13 21 84 27 117 9z m24 -88 c3 -5
-18 -7 -47 -5 -75 6 -81 11 -15 12 31 1 59 -3 62 -7z m422 -26 c3 -14 3 -29 0
-34 -3 -5 -67 -12 -143 -16 -76 -4 -159 -11 -186 -15 l-47 -8 2 34 c1 18 7 33
13 34 5 0 48 7 95 14 47 7 124 13 172 14 85 1 88 0 94 -23z m-426 -15 c18 -5
26 -15 28 -34 4 -31 1 -32 -64 -12 -27 8 -61 15 -76 15 -21 0 -28 5 -28 20 0
18 6 20 58 19 31 -1 68 -4 82 -8z m390 -157 c6 -14 10 -29 10 -34 0 -4 -35
-11 -77 -15 -43 -4 -116 -13 -163 -21 -131 -22 -137 -21 -142 22 -3 21 0 38 7
40 15 6 258 31 313 33 37 1 44 -2 52 -25z m32 -87 c14 -11 -2 -15 -100 -26
-64 -6 -157 -19 -207 -27 -74 -13 -97 -13 -127 -3 -21 7 -38 16 -38 21 0 12
34 10 47 -3 12 -12 75 -5 263 31 117 22 141 23 162 7z m68 -71 c0 -40 3 -39
-165 -56 -138 -14 -233 -27 -262 -36 -21 -6 -23 -3 -23 30 0 21 5 36 12 36 6
0 84 11 172 25 145 22 194 28 249 33 13 2 17 -6 17 -32z m-597 3 c106 -27 117
-33 117 -69 0 -35 3 -34 -46 -14 -22 9 -66 24 -99 34 -53 15 -60 20 -61 43 -1
15 1 27 3 27 3 0 41 -9 86 -21z"/>
<path d="M3578 510 c-2 -6 -63 -34 -136 -64 -153 -62 -182 -79 -182 -106 0
-30 36 -46 160 -70 158 -30 194 -29 280 11 161 74 162 168 1 219 -69 22 -117
26 -123 10z m115 -52 c48 -13 87 -25 87 -28 0 -8 -188 -132 -203 -134 -7 0
-43 9 -82 21 -38 12 -87 25 -107 28 -21 3 -38 9 -38 13 0 4 42 24 93 45 51 21
106 46 122 57 17 10 32 19 35 19 3 1 44 -9 93 -21z m96 -94 c-12 -15 -61 -44
-75 -44 -10 0 69 58 80 59 5 1 3 -6 -5 -15z"/>
<path d="M3541 431 c-11 -7 -5 -11 22 -16 41 -8 72 0 62 15 -8 12 -65 13 -84
1z"/>
</g>
</svg>
