<?xml version="1.0" standalone="no"?>
<!DOCTYPE svg PUBLIC "-//W3C//DTD SVG 20010904//EN"
 "http://www.w3.org/TR/2001/REC-SVG-20010904/DTD/svg10.dtd">
<svg version="1.0" xmlns="http://www.w3.org/2000/svg"
 width="400.000000pt" height="274.000000pt" viewBox="0 0 400.000000 274.000000"
 preserveAspectRatio="xMidYMid meet">

<g transform="translate(0.000000,274.000000) scale(0.100000,-0.100000)"
fill="#000000" stroke="none">
<path d="M1838 2537 c-60 -17 -94 -41 -118 -80 -30 -49 -26 -106 11 -156 17
-24 29 -45 27 -47 -2 -2 -26 11 -54 30 -91 61 -156 80 -279 80 -103 1 -113 -1
-158 -27 -82 -49 -98 -123 -35 -170 14 -11 67 -29 117 -41 90 -22 91 -23 71
-41 -11 -10 -20 -31 -20 -46 0 -25 -5 -29 -37 -34 -95 -16 -372 -89 -480 -126
-65 -22 -131 -44 -147 -47 -39 -10 -54 -35 -36 -57 12 -14 25 -16 73 -11 l59
6 -31 -29 c-49 -46 -37 -100 15 -66 14 9 51 25 82 36 l56 19 -21 -22 c-49 -54
-53 -98 -11 -98 23 0 83 35 125 73 28 25 37 18 23 -19 -15 -37 -5 -74 19 -74
11 0 43 19 71 43 64 51 142 107 152 107 3 0 2 -16 -3 -35 -13 -45 -8 -107 9
-113 7 -2 12 5 12 17 0 20 5 21 138 22 75 0 173 6 217 13 44 8 82 12 83 10 2
-1 -18 -14 -45 -29 -88 -47 -124 -72 -139 -94 -34 -47 -287 -153 -649 -270
-276 -89 -325 -108 -350 -136 -24 -26 -104 -49 -240 -70 -55 -8 -103 -15 -107
-15 -4 0 -15 -11 -24 -26 -13 -19 -14 -28 -6 -36 8 -8 10 -55 6 -157 -7 -161
3 -235 41 -311 26 -51 41 -66 108 -104 l47 -27 30 30 c26 25 30 37 30 83 0 29
-7 94 -15 143 -20 120 -20 121 16 134 33 11 31 31 -4 32 -24 1 -18 4 25 13 35
8 36 22 2 30 -35 9 -23 18 39 33 34 7 54 8 58 1 4 -5 9 -41 13 -78 12 -130 -1
-129 301 -22 77 28 181 67 230 87 50 20 122 48 160 63 100 38 419 197 435 217
12 15 12 18 -1 26 -29 16 -129 101 -129 110 0 16 12 9 56 -30 23 -22 75 -56
116 -77 40 -20 80 -42 88 -49 18 -14 219 -95 238 -95 30 0 6 -22 -75 -71 -49
-29 -140 -87 -203 -130 -63 -42 -129 -84 -146 -92 -34 -18 -50 -53 -32 -74 8
-10 6 -19 -11 -36 -11 -13 -21 -27 -21 -32 0 -5 -28 -35 -62 -66 l-63 -57 39
-74 c57 -107 92 -152 138 -178 38 -22 45 -22 194 -15 180 8 223 23 257 89 20
38 20 39 2 52 -10 8 -30 14 -45 14 -34 0 -159 35 -172 48 -8 8 -8 15 0 25 16
19 4 29 -20 16 -29 -16 -35 -2 -9 22 29 27 21 35 -17 15 -25 -13 -32 -13 -41
-2 -13 16 -3 30 56 75 l42 32 71 -25 c117 -43 293 -53 321 -20 8 10 8 14 0 14
-23 0 -9 40 32 90 94 115 131 170 180 269 46 91 52 111 52 166 0 92 -31 133
-137 184 -46 21 -109 47 -140 56 -32 9 -58 18 -58 19 0 2 28 17 63 34 34 17
95 61 135 98 l74 67 40 -46 c48 -57 204 -162 322 -217 98 -46 237 -85 343 -95
73 -8 108 0 82 16 -11 6 -3 19 31 53 l45 45 90 -25 c105 -30 222 -45 248 -32
18 9 23 43 7 53 -5 3 -1 14 10 25 11 11 20 26 20 33 0 7 14 17 32 22 38 12 60
41 39 54 -21 13 -218 41 -290 41 -73 0 -273 38 -388 75 -207 65 -300 114 -428
228 -51 44 -48 57 14 57 59 0 115 35 156 97 21 32 34 58 29 60 -45 16 -59 31
-62 66 -3 36 -2 37 38 43 76 12 129 64 100 99 -16 20 -110 19 -173 0 -33 -10
-55 -11 -72 -5 -14 5 -31 7 -39 4 -8 -3 -17 -1 -21 5 -3 6 -16 11 -29 11 -24
0 -60 35 -123 121 -59 81 -191 163 -310 194 -81 21 -315 29 -375 12z m882
-377 c0 -6 -12 -20 -27 -33 -80 -67 -103 -92 -113 -123 -11 -31 -28 -43 -43
-28 -12 12 26 68 86 131 54 57 97 80 97 53z m100 -125 c0 -36 5 -47 25 -61
l25 -16 -21 -29 c-25 -36 -48 -37 -88 -3 -41 34 -58 23 -32 -22 l20 -34 -25
-6 c-43 -11 -107 3 -127 27 -27 34 -19 73 17 79 31 5 49 30 22 30 -9 0 -16 5
-16 10 0 6 4 10 9 10 5 0 22 11 38 24 27 23 55 30 126 34 26 2 27 0 27 -43z
m-910 -14 c0 -20 -104 -204 -132 -231 -48 -49 -74 -40 -143 50 -25 33 -52 60
-59 60 -21 0 -89 -79 -136 -158 -37 -63 -46 -72 -71 -72 -36 0 -38 24 -9 89
11 24 20 51 20 61 0 29 31 59 90 88 43 22 57 34 65 60 8 27 14 32 41 32 24 0
38 -8 58 -35 29 -37 73 -65 104 -65 26 0 72 38 71 58 0 13 -3 11 -11 -6 -22
-46 -91 -41 -142 11 l-31 31 40 7 c22 4 78 10 125 13 46 4 86 9 89 11 8 8 31
5 31 -4z m160 -63 c0 -90 14 -143 42 -162 12 -9 20 -17 17 -20 -25 -24 -709
-122 -709 -101 0 15 82 140 113 173 17 17 37 32 44 32 7 0 31 -27 53 -60 61
-90 96 -101 154 -50 20 18 56 73 87 133 28 56 56 108 62 115 6 7 34 12 73 12
l64 0 0 -72z m105 37 c0 -40 32 -45 96 -15 l47 22 116 -28 c136 -33 130 -23
124 -176 -3 -94 -6 -107 -33 -152 -30 -50 -104 -128 -159 -168 l-28 -21 7 34
c4 19 29 91 56 161 56 146 66 196 50 237 -24 57 -88 59 -167 4 -114 -78 -137
-93 -150 -93 -27 0 -42 45 -47 138 l-5 93 47 -3 c44 -3 46 -4 46 -33z m103 9
c2 -1 -15 -8 -37 -15 -44 -13 -57 -9 -48 15 5 11 16 13 44 9 21 -3 40 -7 41
-9z m-754 -38 c-5 -12 -93 -66 -107 -66 -3 0 0 17 7 38 11 32 18 38 52 42 46
7 55 4 48 -14z m-114 12 c-1 -7 -66 -164 -73 -175 -4 -6 -32 -25 -62 -42 -31
-18 -83 -56 -116 -87 -33 -30 -64 -52 -69 -49 -10 6 12 71 31 90 13 13 11 55
-4 55 -7 0 -35 -19 -62 -41 -130 -108 -187 -120 -75 -16 57 52 71 70 61 80 -9
9 -16 9 -32 -1 -33 -21 -202 -92 -207 -88 -2 3 33 26 77 52 45 26 84 51 88 56
15 25 -20 26 -116 3 -112 -27 -130 -30 -115 -16 17 16 196 70 384 115 102 24
203 49 225 54 42 10 65 14 65 10z m1015 -88 c27 -30 15 -96 -44 -245 -28 -69
-53 -142 -57 -161 -7 -39 -43 -72 -56 -51 -5 8 -8 7 -8 -5 0 -11 -18 -25 -46
-38 -59 -25 -80 -25 -95 1 -15 29 -82 56 -159 64 -85 9 -133 29 -128 52 8 42
186 123 269 123 71 0 106 -21 135 -83 13 -29 24 -45 24 -37 -1 29 -38 97 -65
118 -40 32 -88 37 -157 18 -82 -23 -192 -80 -215 -111 l-19 -26 -43 31 c-24
18 -39 35 -35 40 25 24 186 99 234 109 65 13 321 99 334 112 21 19 -7 22 -56
6 -29 -9 -53 -15 -55 -13 -4 3 137 101 157 109 31 12 68 6 85 -13z m245 -161
c0 -9 -71 -51 -76 -46 -3 2 1 27 8 56 l12 51 28 -27 c15 -15 28 -30 28 -34z
m107 -83 c29 -22 51 -42 49 -44 -3 -2 -19 7 -36 20 -28 20 -43 23 -126 23
l-95 -1 63 32 c49 25 66 29 78 20 9 -6 39 -29 67 -50z m-4 -42 c20 -10 37 -22
37 -28 0 -6 -27 -37 -59 -70 l-60 -59 -46 27 c-57 34 -115 84 -115 100 0 16
29 42 55 49 37 11 151 -1 188 -19z m119 -25 c11 -6 70 -28 131 -50 91 -31 105
-39 75 -39 -53 0 -88 -16 -88 -39 0 -26 20 -36 100 -52 86 -17 120 -49 120
-112 0 -24 -2 -46 -5 -49 -9 -8 -219 41 -231 55 -6 6 -20 37 -29 67 -21 66
-48 121 -86 177 -16 23 -29 44 -29 47 0 9 20 7 42 -5z m-7 -103 c43 -69 82
-162 73 -172 -6 -5 -186 86 -229 116 l-32 23 61 59 c34 33 66 57 71 53 6 -3
30 -38 56 -79z m366 -41 c35 -14 77 -35 92 -48 l28 -22 -69 -75 -70 -75 10 46
c9 37 7 52 -6 80 -21 45 -56 65 -139 79 -74 13 -90 25 -55 40 36 16 139 3 209
-25z m147 6 l33 -6 -23 -22 -23 -22 -55 35 -55 35 45 -7 c25 -3 60 -9 78 -13z
m315 -18 c65 -8 59 -23 -8 -23 -75 0 -125 -21 -125 -53 0 -30 10 -38 75 -63
88 -33 15 -29 -129 7 -72 19 -133 34 -134 36 -2 1 15 27 38 59 l43 57 96 -7
c53 -4 117 -9 144 -13z m-1631 -19 c16 -9 27 -18 24 -21 -5 -5 -31 3 -106 34
l-35 14 44 -6 c24 -3 57 -13 73 -21z m1613 -54 c4 -6 -9 -10 -32 -9 -30 0 -34
2 -18 9 27 12 43 12 50 0z m-3109 -352 l-1 -73 -72 -3 c-63 -2 -73 0 -82 17
-6 11 -8 33 -5 49 5 26 15 33 73 55 36 14 71 26 77 26 8 1 11 -23 10 -71z
m-187 -35 c-1 -47 2 -60 20 -75 29 -23 21 -34 -30 -41 -22 -3 -43 -8 -46 -10
-12 -12 10 -27 40 -27 38 0 25 -17 -17 -22 -45 -5 -44 -26 1 -30 l38 -3 6 -80
c4 -44 14 -107 22 -140 15 -63 8 -98 -21 -110 -34 -13 -124 76 -149 149 -15
42 -18 84 -18 234 l0 183 25 5 c14 4 39 10 55 14 70 19 75 16 74 -47z m1389
-330 c45 -15 82 -30 81 -33 0 -3 -21 -20 -46 -38 l-45 -33 -64 30 c-35 16 -64
33 -64 36 0 8 43 65 49 65 3 0 43 -12 89 -27z m-45 -128 c32 -6 37 -11 37 -34
0 -21 -9 -32 -40 -50 -22 -12 -40 -26 -40 -32 0 -13 6 -12 51 12 52 26 72 20
31 -10 -31 -22 -43 -51 -21 -51 6 0 24 9 40 21 l29 20 56 -27 c44 -22 76 -29
140 -32 78 -4 83 -6 73 -23 -5 -11 -27 -28 -49 -39 -33 -17 -59 -20 -162 -20
-146 1 -203 12 -242 48 -28 26 -116 155 -116 169 0 4 21 29 47 55 l46 47 41
-24 c23 -13 58 -27 79 -30z"/>
<path d="M2778 2044 c-5 -4 -8 -16 -8 -28 0 -14 3 -17 11 -9 6 6 9 19 7 28 -1
9 -6 13 -10 9z"/>
<path d="M1420 2535 c0 -9 62 -36 68 -30 9 9 -28 35 -50 35 -10 0 -18 -2 -18
-5z"/>
<path d="M1242 2465 c-29 -8 -62 -20 -73 -25 -24 -13 -26 -35 -1 -25 92 36
238 48 306 25 48 -16 57 -6 14 16 -45 24 -176 29 -246 9z"/>
<path d="M660 2054 c-106 -27 -130 -35 -130 -42 0 -10 191 37 205 49 12 12 -8
10 -75 -7z"/>
<path d="M660 2001 c-108 -42 -176 -76 -185 -91 -9 -14 -6 -13 71 24 38 18
104 47 146 62 43 16 78 32 78 37 0 11 -8 9 -110 -32z"/>
<path d="M3090 1753 c0 -5 11 -16 25 -23 14 -8 23 -20 21 -27 -6 -16 6 -17 21
-2 8 8 25 8 60 1 26 -6 52 -7 56 -2 5 4 -6 11 -25 15 -59 12 -68 16 -68 33 0
14 -2 14 -9 3 -9 -13 -24 -12 -63 4 -10 4 -18 3 -18 -2z"/>
<path d="M2765 920 c-42 -16 -73 -86 -54 -121 17 -33 75 -25 115 15 68 68 26
142 -61 106z m82 -36 c16 -41 -60 -104 -108 -89 -27 9 -24 51 6 80 29 29 92
35 102 9z"/>
<path d="M1268 685 c-12 -28 -27 -31 -47 -12 -11 10 -12 9 -6 -1 4 -9 0 -15
-14 -19 -31 -8 -26 -23 8 -23 25 0 28 -3 23 -22 -5 -23 -5 -23 16 -4 21 18 23
18 42 1 24 -22 27 -9 3 17 -13 14 -13 18 -2 18 8 0 31 5 52 11 39 11 52 33 15
25 -13 -3 -35 -7 -51 -11 -25 -5 -27 -4 -21 20 8 32 -3 32 -18 0z"/>
</g>
</svg>
