<?xml version="1.0" standalone="no"?>
<!DOCTYPE svg PUBLIC "-//W3C//DTD SVG 20010904//EN"
 "http://www.w3.org/TR/2001/REC-SVG-20010904/DTD/svg10.dtd">
<svg version="1.0" xmlns="http://www.w3.org/2000/svg"
 width="400.000000pt" height="394.000000pt" viewBox="0 0 400.000000 394.000000"
 preserveAspectRatio="xMidYMid meet">

<g transform="translate(0.000000,394.000000) scale(0.100000,-0.100000)"
fill="#000000" stroke="none">
<path d="M1406 3765 c-54 -19 -92 -59 -105 -110 -25 -99 -9 -151 73 -249 30
-35 63 -81 74 -102 11 -22 32 -54 46 -73 23 -31 24 -36 12 -60 -21 -40 -35
-134 -39 -263 -3 -108 -2 -118 16 -124 10 -3 16 -11 14 -17 -2 -7 -12 -39 -22
-72 -46 -159 -127 -240 -282 -280 -169 -44 -330 1 -504 142 -32 27 -64 48 -71
48 -9 0 -13 -14 -12 -42 0 -31 11 -57 38 -99 40 -60 41 -73 5 -54 -40 22 -80
29 -105 20 -31 -12 -33 -60 -3 -101 l20 -29 -37 3 c-55 3 -63 -18 -31 -86 16
-36 55 -86 108 -142 75 -78 95 -93 194 -141 60 -29 139 -61 175 -70 183 -48
397 13 536 152 72 71 153 199 193 304 25 65 61 230 61 280 0 10 10 39 22 66
l22 49 14 -67 c14 -65 14 -68 -5 -85 -13 -11 -27 -48 -38 -97 -16 -72 -17 -92
-5 -222 26 -292 18 -346 -72 -479 -96 -145 -205 -214 -425 -271 -257 -66 -454
-69 -570 -10 -54 27 -63 26 -63 -11 l0 -24 -195 5 c-119 2 -201 8 -208 15 -26
21 -49 -54 -53 -164 -7 -195 -13 -285 -19 -295 -3 -5 -1 -18 5 -29 7 -13 7
-22 0 -26 -7 -4 -7 -12 0 -25 7 -13 7 -21 0 -25 -16 -10 -1 -184 17 -211 16
-26 72 -48 95 -39 9 4 32 30 51 58 27 39 45 86 72 187 20 74 40 139 45 144 6
6 20 5 36 -3 41 -18 54 2 23 35 l-24 26 27 -7 c31 -8 33 -4 17 27 -9 16 -7 24
12 44 12 13 32 24 44 24 13 0 42 7 66 15 23 9 46 12 50 8 4 -5 35 -93 69 -198
34 -104 67 -196 73 -203 6 -8 22 -12 35 -9 14 3 64 -2 111 -10 122 -22 273
-13 376 22 69 23 323 159 381 204 12 9 59 45 105 80 46 36 124 105 172 155
l88 91 -5 -85 c-3 -47 -8 -184 -12 -305 -3 -121 -10 -249 -15 -284 -11 -74 -6
-81 52 -74 l39 6 0 -131 c0 -99 -4 -142 -16 -172 -10 -25 -13 -45 -8 -50 23
-23 908 -43 940 -22 7 4 12 35 12 74 1 118 -24 132 -257 148 -147 10 -161 14
-161 53 0 23 -13 22 -35 -3 -26 -29 -55 -26 -55 4 0 34 -14 40 -35 16 -22 -25
-46 -25 -73 -2 -16 13 -21 31 -24 77 l-3 60 105 26 c127 32 149 41 174 68 19
21 20 38 20 289 -1 184 -6 314 -18 417 -22 198 -82 557 -111 668 -23 88 -23
88 -4 160 10 40 22 106 27 147 9 66 8 77 -7 90 -10 8 -23 35 -30 60 -17 59
-73 169 -105 207 -14 17 -26 34 -26 37 0 3 23 6 51 6 47 0 52 2 62 29 l11 29
165 7 c197 9 422 -1 467 -20 27 -11 41 -30 75 -97 53 -106 84 -147 124 -164
72 -30 105 15 88 124 -6 37 -9 68 -8 70 2 2 18 -10 36 -26 69 -60 121 -70 141
-27 11 24 2 68 -29 143 -3 9 7 7 33 -6 99 -50 144 -35 144 48 0 103 -126 224
-289 278 -65 22 -100 26 -246 30 -183 5 -251 -2 -553 -59 -183 -34 -194 -35
-217 -9 -18 20 -26 20 -232 14 l-214 -7 -99 48 c-92 44 -108 48 -200 55 -61 4
-105 12 -113 20 -9 10 -9 13 0 17 34 12 56 43 70 98 28 110 28 123 1 135 -13
6 -37 37 -53 68 -38 73 -81 121 -122 138 -41 18 -117 17 -167 -1z m240 -122
c3 -10 16 -42 30 -70 17 -38 29 -53 44 -53 11 0 20 -1 20 -2 -1 -19 -31 -82
-41 -90 -11 -7 -11 -11 -1 -15 29 -11 8 -22 -50 -25 -58 -3 -63 -5 -66 -27 -3
-16 6 -31 29 -50 l32 -27 -48 -27 c-27 -15 -52 -24 -56 -20 -3 5 -27 39 -53
76 -32 47 -46 79 -46 101 0 19 -7 39 -15 46 -8 7 -15 23 -15 36 0 27 23 31 65
12 30 -13 39 -7 30 21 -5 17 -15 21 -47 21 -27 0 -38 4 -35 13 2 6 16 11 31
10 14 -1 26 2 26 8 0 5 -20 9 -44 9 -56 0 -69 17 -19 25 21 4 54 12 73 20 56
22 63 23 108 24 32 1 44 -3 48 -16z m170 -414 c109 -20 256 -100 418 -228 87
-69 233 -253 296 -372 l52 -101 -28 6 c-113 24 -262 36 -460 36 l-221 0 -6 68
c-2 38 -14 89 -27 117 -18 39 -25 78 -31 175 -8 132 -14 160 -33 160 -9 0 -12
-46 -12 -179 1 -125 -3 -183 -11 -192 -9 -9 -36 1 -118 41 -58 29 -110 61
-115 71 -14 25 -12 219 1 260 39 116 145 166 295 138z m1739 -93 c94 -32 160
-72 209 -127 45 -49 48 -79 9 -79 -41 0 -121 41 -176 88 -27 23 -55 42 -63 42
-26 0 -15 -47 22 -92 41 -48 91 -144 81 -154 -10 -11 -69 31 -131 95 -87 88
-107 67 -63 -65 45 -131 42 -181 -8 -154 -29 16 -47 42 -107 161 -59 115 -73
122 -243 127 -72 2 -207 -3 -303 -12 -252 -23 -227 -29 -247 54 -10 39 -15 74
-11 77 3 4 36 5 73 4 37 -1 103 3 147 9 45 6 155 22 246 35 235 34 450 30 565
-9z m-1089 -21 c7 -2 17 -34 23 -71 7 -38 20 -81 29 -96 9 -15 13 -30 10 -33
-3 -4 -38 0 -77 9 -69 14 -74 17 -162 100 -49 47 -94 86 -100 86 -5 0 -9 3 -9
8 0 7 264 5 286 -3z m-821 -406 c41 -22 75 -44 75 -47 0 -4 -14 -54 -30 -111
-67 -237 -196 -433 -343 -520 -107 -63 -180 -84 -292 -85 -87 0 -112 4 -188
31 -48 17 -112 46 -143 64 -64 39 -198 173 -191 191 4 14 47 16 89 5 36 -9 35
0 -4 62 -17 28 -29 53 -26 56 7 7 81 -16 108 -35 38 -26 57 -30 69 -16 16 19
0 56 -60 138 -28 39 -49 72 -46 74 2 3 26 -15 53 -39 122 -110 250 -167 374
-167 263 0 408 116 446 355 6 44 12 81 13 83 3 8 31 -3 96 -39z m342 -208 c21
-11 180 -197 222 -260 91 -133 77 -149 -104 -127 -126 15 -156 10 -169 -27
-16 -43 10 -81 173 -250 83 -86 151 -161 151 -165 0 -21 -23 -28 -68 -21 -123
20 -165 5 -142 -50 6 -16 25 -41 41 -57 16 -15 29 -38 29 -50 0 -12 -19 -47
-42 -78 -38 -51 -57 -63 -92 -57 -4 1 -19 -5 -32 -14 -18 -11 -24 -25 -24 -50
0 -41 -5 -46 -135 -152 -154 -124 -124 -125 -262 4 -65 61 -134 127 -152 147
l-35 36 27 0 c15 0 95 -14 178 -30 152 -31 178 -30 201 4 26 38 -7 121 -85
217 -26 33 -47 64 -45 68 2 4 27 29 57 55 36 32 58 45 70 41 9 -4 45 -9 81
-12 57 -5 69 -2 94 18 26 20 28 27 24 71 -4 38 -16 64 -48 110 l-43 61 7 81
c5 61 1 108 -14 190 -11 61 -20 111 -20 112 0 2 19 4 43 6 37 3 42 6 45 29 2
21 -8 36 -47 72 -38 33 -51 52 -51 72 l0 27 78 -7 c42 -4 82 -10 89 -14z m375
-7 c19 -6 129 -172 153 -232 15 -37 15 -46 3 -84 -14 -41 -17 -44 -84 -65 -38
-13 -75 -31 -82 -40 -16 -22 -8 -57 24 -104 13 -19 24 -41 24 -47 0 -10 -93
-185 -107 -202 -2 -2 -27 22 -56 55 -28 33 -97 107 -154 166 -57 58 -103 110
-103 117 0 15 6 15 129 -3 151 -23 191 -5 191 82 0 56 -72 162 -207 305 -29
31 -53 60 -53 64 0 7 293 -4 322 -12z m221 -24 c8 -7 -18 -163 -30 -182 -2 -5
-17 18 -34 49 -16 31 -45 77 -63 102 l-34 46 76 -3 c43 -2 81 -8 85 -12z
m-737 -88 c-9 -9 -37 8 -31 18 5 8 11 7 21 -1 8 -6 12 -14 10 -17z m734 -339
c0 -27 7 -95 15 -153 8 -58 15 -109 15 -115 0 -5 -29 20 -65 55 -36 35 -65 69
-65 74 0 16 84 185 93 186 4 0 7 -21 7 -47z m-119 -15 c-25 -60 -35 -64 -60
-29 -24 33 -26 47 -9 57 12 8 80 22 86 19 1 -1 -6 -23 -17 -47z m-551 -264 c0
-12 -7 -25 -16 -28 -20 -8 -82 -8 -112 0 -22 6 -22 7 -5 33 9 14 28 48 41 75
l23 48 34 -53 c19 -30 35 -64 35 -75z m630 22 c38 -43 70 -83 70 -87 0 -13
-25 -11 -113 8 -71 15 -79 15 -94 1 -24 -25 -11 -54 73 -169 42 -57 82 -116
90 -132 13 -24 13 -28 -1 -34 -9 -3 -50 2 -91 11 -96 21 -117 20 -139 -4 -37
-41 -10 -89 178 -310 42 -50 77 -95 77 -100 0 -16 -25 -12 -96 15 -105 39
-147 30 -125 -28 5 -12 45 -64 90 -115 74 -83 79 -92 59 -96 -13 -3 -69 -12
-126 -21 -57 -9 -128 -25 -159 -36 -75 -25 -93 -25 -93 4 0 65 22 201 36 223
14 20 14 31 5 68 -6 25 -11 101 -11 171 l0 126 30 6 c35 6 60 36 60 70 0 12
-10 42 -21 66 l-22 44 69 105 c38 57 92 147 119 201 28 53 53 96 57 94 4 -1
39 -37 78 -81z m-50 -121 c30 -8 72 -15 92 -15 20 0 40 -5 43 -10 7 -12 31
-230 38 -343 4 -76 3 -78 -17 -73 -52 15 -62 16 -75 7 -23 -15 -5 -56 53 -121
l53 -60 5 -132 c3 -73 3 -136 -1 -139 -3 -4 -26 -9 -51 -13 l-45 -6 -88 101
c-48 56 -86 104 -84 106 2 2 38 -10 80 -27 91 -36 102 -37 123 -6 14 23 14 28
-4 68 -11 24 -61 90 -111 148 -104 120 -155 190 -144 201 5 4 49 0 98 -10 103
-20 141 -14 151 25 9 36 -11 76 -98 192 -66 88 -88 122 -75 122 1 0 27 -7 57
-15z m-297 -65 c23 0 22 -11 -4 -44 l-21 -27 -25 23 c-14 13 -29 32 -35 42
-10 18 -7 19 28 13 22 -4 47 -7 57 -7z m-542 -150 c87 -121 84 -124 -110 -87
-179 35 -218 35 -232 3 -25 -54 13 -107 176 -251 61 -54 111 -101 113 -106 2
-4 -16 -18 -39 -30 -42 -21 -62 -21 -141 -3 -35 8 -53 -22 -38 -62 8 -21 8
-29 -2 -36 -22 -14 -80 -28 -163 -40 l-80 -11 -30 39 c-16 21 -63 74 -104 116
-41 43 -71 78 -66 78 5 0 46 -7 91 -16 116 -21 174 -16 193 16 22 41 -6 85
-113 176 l-93 79 87 5 c99 6 118 16 122 68 l3 36 84 18 c82 17 185 59 226 92
11 8 26 15 34 13 8 -1 45 -45 82 -97z m554 -60 c19 -36 13 -50 -21 -50 -26 0
-27 2 -18 49 8 39 19 39 39 1z m-1302 -10 c53 0 56 -1 45 -19 -20 -33 9 -76
108 -162 52 -44 94 -85 94 -91 0 -7 -17 -8 -52 -4 -167 19 -211 20 -224 1 -8
-11 -11 -29 -7 -44 15 -62 -10 -3 -63 149 -31 91 -60 169 -65 175 -19 20 -7
22 49 9 31 -8 83 -14 115 -14z m277 21 c0 -12 -38 -21 -90 -20 l-45 1 50 13
c62 16 85 17 85 6z m-766 -12 l94 -12 7 -70 c6 -66 5 -71 -19 -96 l-25 -25
-40 22 c-57 32 -70 -7 -14 -43 34 -23 22 -30 -16 -10 -55 28 -68 2 -21 -42
l30 -28 -34 -130 c-42 -160 -47 -173 -81 -207 -31 -32 -47 -35 -65 -13 -14 16
-14 9 15 310 8 88 15 197 15 242 0 126 -7 121 154 102z m2245 -218 c7 -5 12
-14 9 -21 -2 -7 -10 -4 -22 9 -19 21 -12 28 13 12z m-1615 -329 c8 -13 2 -14
-39 -9 -26 4 -55 7 -65 7 -13 0 -23 20 -39 78 -12 42 -25 85 -27 95 -6 18 153
-141 170 -171z m1438 -379 c10 -9 18 -30 18 -50 0 -38 12 -42 35 -11 12 18 19
21 33 12 9 -7 16 -21 14 -33 -5 -31 27 -39 47 -12 16 21 21 22 77 12 32 -6
115 -15 184 -21 128 -12 170 -26 170 -58 0 -16 -18 -17 -222 -15 -264 1 -594
12 -614 20 -10 4 -14 26 -14 84 l0 78 83 -5 c47 -4 93 -2 107 4 37 16 61 14
82 -5z"/>
<path d="M1570 3620 c-10 -6 -11 -12 -5 -19 13 -12 59 5 50 19 -8 12 -25 13
-45 0z"/>
<path d="M1570 3552 c0 -10 6 -27 14 -38 20 -26 50 -8 54 32 3 28 3 28 -12 9
-15 -19 -17 -19 -30 -2 -17 22 -26 22 -26 -1z"/>
<path d="M1450 3480 c0 -5 5 -10 10 -10 6 0 10 5 10 10 0 6 -4 10 -10 10 -5 0
-10 -4 -10 -10z"/>
<path d="M3195 3366 c-5 -3 -27 -7 -47 -11 -24 -4 -38 -11 -38 -20 0 -13 23
-14 148 -9 178 8 361 -13 457 -51 72 -29 82 -31 64 -9 -20 25 -84 54 -167 76
-58 15 -118 21 -242 24 -91 2 -169 2 -175 0z"/>
<path d="M1193 2806 c20 -129 -95 -234 -223 -205 -73 17 -68 -12 6 -30 82 -21
176 13 217 79 26 42 32 160 8 182 -11 11 -13 7 -8 -26z"/>
</g>
</svg>
